<svg xmlns="http://www.w3.org/2000/svg" width="1080" height="1080" viewBox="0 0 1080 1080" version="1.1"><path d="M 515 190.616 C 464.313 195.216, 424.529 206.175, 383.076 226.956 C 371.616 232.702, 367.493 235.349, 363.009 239.844 C 341.653 261.249, 347.955 296.684, 375.500 310.079 C 382.217 313.346, 382.964 313.484, 394 313.492 L 405.500 313.500 421.500 305.797 C 446.119 293.944, 463.635 287.891, 487.500 282.987 C 517.762 276.769, 556.663 276.404, 587.500 282.048 C 636.877 291.085, 684.796 315.766, 721.375 351 C 763.454 391.532, 790.065 443.258, 799.135 502.144 C 802.281 522.572, 802.301 557.336, 799.177 577.500 C 787.412 653.452, 747.329 716.520, 684 758.722 C 638.836 788.818, 586.221 803.540, 530.500 801.671 C 491.951 800.379, 458.179 791.900, 424.094 774.957 C 396.407 761.194, 375.534 746.234, 353.337 724.243 C 339.517 710.551, 331.445 700.747, 321.439 685.500 C 298.294 650.232, 284.653 613.556, 279.408 572.500 C 277.418 556.917, 277.175 525.912, 278.930 511.500 C 282.894 478.944, 291.503 449.909, 305.415 422.169 C 312.869 407.307, 314.386 401.661, 313.733 391.206 C 313.299 384.239, 312.606 381.588, 309.669 375.645 C 298.557 353.161, 273.851 344.456, 251.153 355.029 C 240.904 359.803, 234.842 366.896, 226.347 384.053 C 209.237 418.610, 198.854 452.075, 192.856 492 C 190.265 509.249, 189.207 552.102, 190.913 570.758 C 200.036 670.543, 249.316 759.366, 328.743 819.188 C 373.449 852.859, 422.178 874.290, 477 884.393 C 501.711 888.947, 508.121 889.458, 540 889.417 C 573.158 889.373, 582.139 888.542, 609.648 882.970 C 714.623 861.709, 803.333 793.825, 852.019 697.500 C 871.828 658.308, 883.115 619.711, 888.136 574 C 889.992 557.094, 889.729 518.606, 887.637 501 C 882.663 459.160, 872.240 423.700, 853.981 386.500 C 836.132 350.136, 818.269 324.643, 791.004 296.621 C 734.845 238.902, 664.232 203.469, 583.500 192.497 C 571.969 190.930, 525.582 189.656, 515 190.616" stroke="none" fill="#ffffff" fill-rule="evenodd"/></svg>