<svg xmlns="http://www.w3.org/2000/svg" width="500" height="500" viewBox="0 0 500 500" version="1.1"><path d="M 220.500 1.523 C 194.637 4.554, 172.193 10.693, 148.001 21.352 C 132.833 28.036, 128.305 30.644, 123.479 35.475 C 115.887 43.075, 113.140 53.050, 115.514 64.396 C 118.740 79.814, 132.193 89.895, 148 88.739 C 153.339 88.349, 156.733 87.188, 167 82.242 C 218.588 57.390, 274.997 56.432, 326.970 79.525 C 332.728 82.083, 338.648 85.037, 340.124 86.088 C 341.601 87.140, 343.091 88, 343.437 88 C 344.800 88, 358.935 97.737, 366.500 103.887 C 378.456 113.607, 385.347 120.416, 394.447 131.500 C 401.396 139.964, 412 155.059, 412 156.487 C 412 156.721, 413.261 159.069, 414.803 161.706 C 418.784 168.515, 425.374 184.063, 428.420 193.829 C 437.793 223.885, 439.390 261.465, 432.550 291 C 420.751 341.950, 387.985 386.495, 343.500 412.062 C 308.673 432.079, 270.002 440.160, 229.117 435.964 C 194.291 432.390, 158.091 417.096, 131.024 394.520 C 122.280 387.227, 107.496 372.006, 101.331 363.949 C 78.419 334.006, 65.039 297.151, 63.412 259.500 C 61.916 224.905, 67.691 196.956, 82.699 166.150 C 88.116 155.030, 88.378 154.136, 88.437 146.500 C 88.556 131.370, 80.805 120.436, 66.572 115.655 C 57.604 112.643, 48.076 114.197, 39.423 120.085 C 34.480 123.447, 31.387 127.424, 27.047 136 C 5.966 177.657, -2.792 222.881, 0.918 270.923 C 1.959 284.404, 2.924 290.504, 7.020 309.500 C 8.159 314.783, 12.808 330.965, 13.915 333.500 C 14.395 334.600, 15.574 337.750, 16.534 340.500 C 19.096 347.842, 30.052 370.426, 34.967 378.500 C 51.693 405.971, 76.120 432.818, 101 451.074 C 147.544 485.225, 200.616 501.650, 258 499.664 C 322.192 497.443, 378.499 473.635, 423.836 429.546 C 467.083 387.490, 491.915 336.519, 499.128 275 C 500.667 261.869, 501.425 231.619, 500.195 232.380 C 499.700 232.685, 499.015 228.995, 498.673 224.179 C 497.550 208.358, 491.287 181.026, 484.654 163 C 477.863 144.544, 467.381 124.088, 457.454 109.915 C 445.766 93.231, 442.501 89.316, 427.629 74.154 C 386.532 32.256, 333.674 6.911, 275.144 1.039 C 261.495 -0.330, 234.256 -0.089, 220.500 1.523 M 0.407 249 C 0.407 258.075, 0.559 261.788, 0.744 257.250 C 0.929 252.713, 0.929 245.287, 0.744 240.750 C 0.559 236.213, 0.407 239.925, 0.407 249" stroke="none" fill="#ffffff" fill-rule="evenodd"/></svg>
