<svg xmlns="http://www.w3.org/2000/svg" width="1080" height="1080" viewBox="0 0 1080 1080" version="1.1"><path d="M 519 190.604 C 470.500 194.009, 427.677 205.351, 385.357 226.001 C 372.356 232.345, 368.119 234.948, 363.585 239.374 C 353.588 249.134, 348.565 264.042, 350.862 277.130 C 354.650 298.706, 372.649 313.901, 394.500 313.970 C 402.915 313.996, 406.296 312.889, 425 303.976 C 452.516 290.865, 482.281 282.283, 511.831 278.939 C 525.700 277.370, 565.121 278.250, 579 280.439 C 624.116 287.555, 667.356 306.403, 703.216 334.585 C 713.270 342.486, 738.187 367.696, 746.239 378.115 C 808.447 458.603, 819.480 565.103, 774.983 655.600 C 767.013 671.810, 755.511 690.128, 744.592 704 C 736.534 714.238, 712.390 738.116, 701.885 746.237 C 675.438 766.684, 644.043 782.853, 614.003 791.499 C 588.267 798.907, 566.511 802, 540.145 802 C 520.094 802, 507.002 800.806, 490 797.427 C 454.874 790.445, 425.694 778.666, 396.708 759.765 C 332.666 718.007, 291.448 653.820, 279.892 577.856 C 277.302 560.827, 276.746 525.670, 278.819 510 C 283.045 478.064, 290.992 451.486, 304.947 422.610 C 311.511 409.028, 314 401.162, 314 394 C 314 388.377, 311.717 379.326, 308.912 373.827 C 306.364 368.834, 298.772 360.531, 294 357.521 C 275.181 345.649, 248.416 350.404, 235.572 367.902 C 233.582 370.612, 228.628 379.730, 224.562 388.165 C 208.182 422.144, 197.999 456.503, 192.307 497 C 189.805 514.807, 189.815 566.139, 192.325 584 C 202.842 658.851, 234.216 726.218, 281.975 776.500 C 328.684 825.678, 380.738 858.176, 440.548 875.498 C 476.695 885.967, 500.359 889.297, 539 889.351 C 569.732 889.393, 577.951 888.700, 603.500 883.912 C 637.231 877.589, 663.597 868.782, 694.507 853.511 C 751.741 825.235, 797.678 784.512, 832.303 731.355 C 867.183 677.808, 885.668 620.966, 888.932 557.218 C 893.096 475.898, 868.520 395.219, 819.791 330.242 C 761.876 253.017, 675.746 203.766, 578 191.981 C 569.024 190.899, 528.330 189.949, 519 190.604" stroke="none" fill="#ffffff" fill-rule="evenodd"/><path d="M 0 540.001 L 0 1080.002 540.250 1079.751 L 1080.500 1079.500 1080.751 539.750 L 1081.002 -0 540.501 -0 L 0 0 0 540.001 M 0.496 540.500 C 0.496 837.500, 0.610 958.851, 0.750 810.168 C 0.890 661.485, 0.890 418.485, 0.750 270.168 C 0.610 121.851, 0.496 243.500, 0.496 540.500 M 519 190.604 C 470.500 194.009, 427.677 205.351, 385.357 226.001 C 372.356 232.345, 368.119 234.948, 363.585 239.374 C 353.588 249.134, 348.565 264.042, 350.862 277.130 C 354.650 298.706, 372.649 313.901, 394.500 313.970 C 402.915 313.996, 406.296 312.889, 425 303.976 C 452.516 290.865, 482.281 282.283, 511.831 278.939 C 525.700 277.370, 565.121 278.250, 579 280.439 C 624.116 287.555, 667.356 306.403, 703.216 334.585 C 713.270 342.486, 738.187 367.696, 746.239 378.115 C 808.447 458.603, 819.480 565.103, 774.983 655.600 C 767.013 671.810, 755.511 690.128, 744.592 704 C 736.534 714.238, 712.390 738.116, 701.885 746.237 C 675.438 766.684, 644.043 782.853, 614.003 791.499 C 588.267 798.907, 566.511 802, 540.145 802 C 520.094 802, 507.002 800.806, 490 797.427 C 454.874 790.445, 425.694 778.666, 396.708 759.765 C 332.666 718.007, 291.448 653.820, 279.892 577.856 C 277.302 560.827, 276.746 525.670, 278.819 510 C 283.045 478.064, 290.992 451.486, 304.947 422.610 C 311.511 409.028, 314 401.162, 314 394 C 314 388.377, 311.717 379.326, 308.912 373.827 C 306.364 368.834, 298.772 360.531, 294 357.521 C 275.181 345.649, 248.416 350.404, 235.572 367.902 C 233.582 370.612, 228.628 379.730, 224.562 388.165 C 208.182 422.144, 197.999 456.503, 192.307 497 C 189.805 514.807, 189.815 566.139, 192.325 584 C 202.842 658.851, 234.216 726.218, 281.975 776.500 C 328.684 825.678, 380.738 858.176, 440.548 875.498 C 476.695 885.967, 500.359 889.297, 539 889.351 C 569.732 889.393, 577.951 888.700, 603.500 883.912 C 637.231 877.589, 663.597 868.782, 694.507 853.511 C 751.741 825.235, 797.678 784.512, 832.303 731.355 C 867.183 677.808, 885.668 620.966, 888.932 557.218 C 893.096 475.898, 868.520 395.219, 819.791 330.242 C 761.876 253.017, 675.746 203.766, 578 191.981 C 569.024 190.899, 528.330 189.949, 519 190.604" stroke="none" fill="#000000" fill-rule="evenodd"/></svg>
