<svg xmlns="http://www.w3.org/2000/svg" width="1280" height="720" viewBox="0 0 1280 720"
    version="1.1">
    <path
        d="M 0 360.001 L 0 720.002 640.250 719.751 L 1280.500 719.500 1280.751 359.750 L 1281.003 0 640.501 0 L 0 0 0 360.001 M 0.495 360.500 C 0.495 558.500, 0.609 639.649, 0.750 540.831 C 0.890 442.013, 0.890 280.013, 0.750 180.831 C 0.609 81.649, 0.495 162.500, 0.495 360.500 M 170 206 C 168.217 207.783, 168.001 209.327, 168.009 220.250 C 168.021 237.784, 168.767 242.801, 171.641 244.684 C 174.604 246.626, 178.540 245.726, 180.145 242.738 C 180.870 241.389, 181.530 234.226, 181.807 224.706 C 182.256 209.280, 182.212 208.855, 179.959 206.456 C 177.130 203.445, 172.755 203.245, 170 206 M 227.686 224.805 C 223.665 229.002, 212 250, 212 253.041 C 212 254.498, 212.896 256.501, 213.991 257.492 C 217.582 260.741, 221.645 258.529, 227.803 249.973 C 241.416 231.058, 242.532 228.441, 238.641 224.550 C 235.203 221.112, 231.134 221.207, 227.686 224.805 M 115.658 241.995 C 114.272 243.642, 112.900 245.779, 112.609 246.745 C 112.318 247.710, 107.735 264.700, 102.425 284.500 C 97.115 304.300, 91.289 326.012, 89.479 332.750 C 87.669 339.488, 86.514 345, 86.913 345 C 87.682 345, 93.715 337.096, 103.826 322.842 C 112.058 311.236, 116.637 307.473, 125.975 304.641 L 133.500 302.359 135.731 294.582 C 140.928 276.467, 140.920 259.628, 135.711 249.699 C 131.613 241.889, 128.049 239, 122.512 239 C 118.926 239, 117.743 239.517, 115.658 241.995 M 1024 256.534 C 1016.896 258.736, 1008.958 264.052, 1004.404 269.656 C 997.269 278.437, 994.888 287.449, 993.416 311.250 L 992.813 321 979.907 321 L 967 321 967 336 L 967 351 980 351 L 993 351 993 404.500 L 993 458 1013 458 L 1033 458 1033 405.059 C 1033 368.924, 1033.336 351.911, 1034.058 351.464 C 1034.639 351.105, 1042.240 351.134, 1050.948 351.528 L 1066.780 352.246 1069.557 359.373 C 1071.084 363.293, 1078.571 381.783, 1086.194 400.461 C 1093.817 419.140, 1100.717 436.980, 1101.527 440.106 C 1104.556 451.793, 1102.932 461.208, 1096.593 468.717 C 1093.208 472.727, 1081.371 480.171, 1073.750 483.081 C 1070.562 484.299, 1068 485.897, 1068 486.667 C 1068 487.432, 1070.762 495.019, 1074.138 503.528 C 1081.013 520.856, 1080.569 520.461, 1089.715 517.397 C 1095.958 515.305, 1109.168 508.664, 1114.940 504.715 C 1121.120 500.486, 1129.432 492.548, 1133.448 487.039 C 1137.812 481.051, 1202.706 329.219, 1203.278 323.658 C 1203.499 321.509, 1203.411 321.500, 1182.644 321.500 L 1161.789 321.500 1145.211 365.196 C 1136.093 389.228, 1128.351 408.717, 1128.007 408.504 C 1127.662 408.291, 1120.207 388.524, 1111.440 364.577 L 1095.500 321.036 1064.250 321.018 L 1033 321 1033.044 318.250 C 1033.068 316.738, 1033.464 310.953, 1033.925 305.396 C 1035.219 289.797, 1038.322 286.681, 1053.750 285.497 L 1063 284.788 1063 270.977 L 1063 257.166 1057.951 256.083 C 1050.791 254.547, 1029.497 254.830, 1024 256.534 M 603.886 257.560 C 592.770 260.983, 585.896 275.635, 590.375 286.355 C 592.118 290.526, 597.513 296.708, 600.898 298.412 C 607.483 301.727, 618.373 301.007, 624.180 296.872 C 625.765 295.743, 628.395 292.497, 630.022 289.660 C 635.444 280.206, 633.475 268.986, 625.143 261.855 C 618.513 256.179, 612.388 254.942, 603.886 257.560 M 927 257.032 C 914.553 259.121, 906.487 274.655, 911.553 286.782 C 917.665 301.413, 937.215 304.913, 948.197 293.342 C 957.869 283.150, 954.984 265.870, 942.500 259.224 C 938.804 257.257, 931.670 256.248, 927 257.032 M 344 359 L 344 458 365 458 L 386 458 386 420.615 L 386 383.229 409.750 382.734 C 435.683 382.193, 441.076 381.323, 452.883 375.772 C 465.544 369.819, 476.159 355.770, 480.666 339 C 483.336 329.066, 483.069 310.856, 480.099 300.267 C 475.238 282.934, 464.509 270.704, 449.105 264.937 C 438.685 261.035, 425.362 260.040, 383.250 260.020 L 344 260 344 359 M 263 271.421 C 243.935 279.520, 238 283.341, 238 287.516 C 238 288.831, 239.115 290.732, 240.548 291.859 C 242.974 293.768, 243.345 293.790, 248.298 292.320 C 258.375 289.330, 273.264 283.100, 275.619 280.889 C 278.363 278.310, 278.694 274.436, 276.443 271.223 C 274.408 268.316, 270.161 268.379, 263 271.421 M 172.286 271.800 C 171.069 271.981, 168.648 273.461, 166.906 275.087 C 163.794 277.995, 163.749 278.169, 164.258 285.273 C 164.559 289.472, 165.717 294.699, 167.021 297.750 L 169.267 303 189.740 303 C 212.978 303, 211.637 303.774, 205.092 294.135 C 193.977 277.768, 182.895 270.223, 172.286 271.800 M 826.994 287.250 C 826.991 293.438, 826.551 301.173, 826.016 304.439 C 824.177 315.670, 817.043 320.842, 803.250 320.946 L 796 321 796 336 L 796 351 809.500 351 L 823 351 823.031 384.750 C 823.048 403.313, 823.474 421.669, 823.977 425.542 C 825.191 434.874, 827.922 440.933, 833.698 447.109 C 842.698 456.730, 850.640 458.946, 876.250 458.980 L 891 459 891 444.674 L 891 430.348 880.825 429.317 C 870.937 428.316, 870.557 428.185, 867.325 424.658 C 864.082 421.119, 864 420.811, 864 412.177 C 864 407.308, 863.703 391.776, 863.340 377.662 L 862.679 352 876.840 352 L 891 352 891 337 L 891 322 877 322 L 863 322 863 299 L 863 276 845 276 L 827 276 826.994 287.250 M 385 320.600 L 385 349.283 404.572 348.561 C 426.632 347.746, 429.013 347.139, 434.278 340.988 C 438.635 335.898, 440.458 329.640, 440.392 320 C 440.326 310.491, 438.704 305.481, 434.150 300.720 C 429.543 295.903, 423.921 294.211, 410.154 293.501 C 404.294 293.199, 396.238 292.718, 392.250 292.434 L 385 291.917 385 320.600 M 126.333 316.417 C 121.789 318.450, 116.925 323.696, 104.898 339.536 C 87.580 362.346, 78.250 375.712, 76.998 379.506 C 76.006 382.513, 76.084 383.479, 77.494 385.632 L 79.169 388.188 88.835 374.912 C 117.410 335.661, 123.221 328.866, 129.762 327.049 C 139.843 324.250, 144.762 326.375, 168.078 343.606 L 176.656 349.945 193.578 349.040 C 207.444 348.299, 211.803 347.685, 217.717 345.639 C 229.948 341.407, 237.487 334.939, 238.667 327.664 C 239.361 323.389, 236.821 318.312, 233.202 316.741 C 231.283 315.908, 215.868 315.485, 180 315.284 C 138.142 315.049, 128.958 315.243, 126.333 316.417 M 563 320.560 C 554.185 322.460, 543.670 327.836, 536.855 333.927 L 531.210 338.973 530.499 329.986 L 529.788 321 511.394 321 L 493 321 493 389.500 L 493 458 512.377 458 L 531.754 458 532.166 418.151 L 532.577 378.301 535.795 371.764 C 541.011 361.170, 548.427 356.945, 565.488 354.848 L 575 353.679 575 336.340 L 575 319 572.250 319.079 C 570.737 319.123, 566.575 319.789, 563 320.560 M 718 320.882 C 710.811 323.202, 706.652 325.374, 700.250 330.149 L 695 334.065 695 327.532 L 695 321 675.500 321 L 656 321 656 389.500 L 656 458 675.403 458 L 694.806 458 695.153 414.750 L 695.500 371.500 698.301 365.796 C 703.470 355.269, 711.625 350.610, 725 350.543 C 735.708 350.489, 740.857 352.975, 745.459 360.420 L 748.500 365.341 748.779 411.670 L 749.058 458 768.880 458 L 788.703 458 788.339 414.250 C 787.803 349.688, 787.910 351.542, 784.257 343.735 C 782.560 340.108, 779.269 335.077, 776.944 332.555 C 771.690 326.855, 760.843 321.408, 752 320.029 C 741.542 318.398, 724.362 318.829, 718 320.882 M 592 389.500 L 592 458 611.500 458 L 631 458 631 389.500 L 631 321 611.500 321 L 592 321 592 389.500 M 912 389.500 L 912 458 931.953 458 L 951.906 458 951.973 389.500 L 952.040 321 932.020 321 L 912 321 912 389.500 M 130.126 339.407 C 125.896 342.528, 119.377 350.764, 100.767 376.500 C 80.325 404.769, 76.364 411.293, 77.571 414.709 C 78.082 416.154, 79.049 417.519, 79.719 417.741 C 80.389 417.964, 85.672 411.701, 91.457 403.823 C 113.712 373.522, 115.652 371.210, 121.181 368.408 C 125.420 366.260, 127.376 365.859, 131.989 366.193 C 139.125 366.709, 143.262 368.871, 159.827 380.739 C 176.529 392.706, 183.253 398.826, 186.051 404.606 C 188.472 409.607, 189.898 410.418, 198 411.397 C 204.733 412.211, 212.613 410.105, 215.891 406.616 C 217.168 405.257, 218.410 402.362, 218.725 400.011 C 219.271 395.941, 219.123 395.671, 213.304 390.163 C 210.014 387.048, 199.262 378.688, 189.411 371.585 C 179.560 364.482, 166.775 355.194, 161 350.946 C 140.533 335.889, 136.790 334.490, 130.126 339.407 M 219.571 355.665 C 213.243 357.848, 206.792 359.310, 201.786 359.696 C 197.466 360.029, 193.733 360.623, 193.490 361.016 C 193.247 361.409, 198.775 365.914, 205.774 371.026 C 227.286 386.740, 230.725 391.247, 229.791 402.509 C 229.190 409.758, 225.275 415.467, 218.521 418.945 C 214.558 420.987, 211.783 421.571, 204.714 421.852 C 199.848 422.046, 193.831 421.691, 191.342 421.065 L 186.818 419.925 182.810 424.478 C 174.580 433.828, 166.348 436.294, 150.850 434.051 C 142.355 432.822, 135.009 430.223, 131.787 427.307 C 128.482 424.316, 130.093 419, 134.304 419 C 135.351 419, 139.971 420.173, 144.570 421.607 C 155.488 425.012, 166.860 424.825, 171.525 421.166 C 177.510 416.471, 178.570 411.019, 174.449 406.122 C 171.760 402.927, 155.578 390.689, 143.095 382.411 C 136.723 378.185, 134.997 377.500, 130.730 377.500 C 124.847 377.500, 124.953 377.395, 107.568 400.500 C 90.399 423.318, 80.006 438.127, 79.363 440.689 C 77.339 448.754, 87.376 458.198, 124.080 482.761 C 141.609 494.493, 148.415 498.307, 159.603 502.667 C 166.023 505.169, 167.606 505.360, 182.500 505.427 C 195.375 505.486, 199.672 505.139, 204.500 503.653 C 225.477 497.198, 243.642 481.641, 252.573 462.484 C 257.458 452.006, 259.326 441.202, 258.773 426.622 C 258.266 413.239, 257.044 408.648, 249.926 393.382 C 247.648 388.497, 243.528 379.325, 240.770 373 C 234.394 358.376, 231.160 351.968, 230.233 352.119 C 229.830 352.185, 225.032 353.780, 219.571 355.665"
        stroke="none" fill="transparent" fill-rule="evenodd" />
    <path
        d="M 170 206 C 168.217 207.783, 168.001 209.327, 168.009 220.250 C 168.021 237.784, 168.767 242.801, 171.641 244.684 C 174.604 246.626, 178.540 245.726, 180.145 242.738 C 180.870 241.389, 181.530 234.226, 181.807 224.706 C 182.256 209.280, 182.212 208.855, 179.959 206.456 C 177.130 203.445, 172.755 203.245, 170 206 M 227.686 224.805 C 223.665 229.002, 212 250, 212 253.041 C 212 254.498, 212.896 256.501, 213.991 257.492 C 217.582 260.741, 221.645 258.529, 227.803 249.973 C 241.416 231.058, 242.532 228.441, 238.641 224.550 C 235.203 221.112, 231.134 221.207, 227.686 224.805 M 115.658 241.995 C 114.272 243.642, 112.900 245.779, 112.609 246.745 C 112.318 247.710, 107.735 264.700, 102.425 284.500 C 97.115 304.300, 91.289 326.012, 89.479 332.750 C 87.669 339.488, 86.514 345, 86.913 345 C 87.682 345, 93.715 337.096, 103.826 322.842 C 112.058 311.236, 116.637 307.473, 125.975 304.641 L 133.500 302.359 135.731 294.582 C 140.928 276.467, 140.920 259.628, 135.711 249.699 C 131.613 241.889, 128.049 239, 122.512 239 C 118.926 239, 117.743 239.517, 115.658 241.995 M 1024 256.534 C 1016.896 258.736, 1008.958 264.052, 1004.404 269.656 C 997.269 278.437, 994.888 287.449, 993.416 311.250 L 992.813 321 979.907 321 L 967 321 967 336 L 967 351 980 351 L 993 351 993 404.500 L 993 458 1013 458 L 1033 458 1033 405.059 C 1033 368.924, 1033.336 351.911, 1034.058 351.464 C 1034.639 351.105, 1042.240 351.134, 1050.948 351.528 L 1066.780 352.246 1069.557 359.373 C 1071.084 363.293, 1078.571 381.783, 1086.194 400.461 C 1093.817 419.140, 1100.717 436.980, 1101.527 440.106 C 1104.556 451.793, 1102.932 461.208, 1096.593 468.717 C 1093.208 472.727, 1081.371 480.171, 1073.750 483.081 C 1070.562 484.299, 1068 485.897, 1068 486.667 C 1068 487.432, 1070.762 495.019, 1074.138 503.528 C 1081.013 520.856, 1080.569 520.461, 1089.715 517.397 C 1095.958 515.305, 1109.168 508.664, 1114.940 504.715 C 1121.120 500.486, 1129.432 492.548, 1133.448 487.039 C 1137.812 481.051, 1202.706 329.219, 1203.278 323.658 C 1203.499 321.509, 1203.411 321.500, 1182.644 321.500 L 1161.789 321.500 1145.211 365.196 C 1136.093 389.228, 1128.351 408.717, 1128.007 408.504 C 1127.662 408.291, 1120.207 388.524, 1111.440 364.577 L 1095.500 321.036 1064.250 321.018 L 1033 321 1033.044 318.250 C 1033.068 316.738, 1033.464 310.953, 1033.925 305.396 C 1035.219 289.797, 1038.322 286.681, 1053.750 285.497 L 1063 284.788 1063 270.977 L 1063 257.166 1057.951 256.083 C 1050.791 254.547, 1029.497 254.830, 1024 256.534 M 603.886 257.560 C 592.770 260.983, 585.896 275.635, 590.375 286.355 C 592.118 290.526, 597.513 296.708, 600.898 298.412 C 607.483 301.727, 618.373 301.007, 624.180 296.872 C 625.765 295.743, 628.395 292.497, 630.022 289.660 C 635.444 280.206, 633.475 268.986, 625.143 261.855 C 618.513 256.179, 612.388 254.942, 603.886 257.560 M 927 257.032 C 914.553 259.121, 906.487 274.655, 911.553 286.782 C 917.665 301.413, 937.215 304.913, 948.197 293.342 C 957.869 283.150, 954.984 265.870, 942.500 259.224 C 938.804 257.257, 931.670 256.248, 927 257.032 M 344 359 L 344 458 365 458 L 386 458 386 420.615 L 386 383.229 409.750 382.734 C 435.683 382.193, 441.076 381.323, 452.883 375.772 C 465.544 369.819, 476.159 355.770, 480.666 339 C 483.336 329.066, 483.069 310.856, 480.099 300.267 C 475.238 282.934, 464.509 270.704, 449.105 264.937 C 438.685 261.035, 425.362 260.040, 383.250 260.020 L 344 260 344 359 M 263 271.421 C 243.935 279.520, 238 283.341, 238 287.516 C 238 288.831, 239.115 290.732, 240.548 291.859 C 242.974 293.768, 243.345 293.790, 248.298 292.320 C 258.375 289.330, 273.264 283.100, 275.619 280.889 C 278.363 278.310, 278.694 274.436, 276.443 271.223 C 274.408 268.316, 270.161 268.379, 263 271.421 M 172.286 271.800 C 171.069 271.981, 168.648 273.461, 166.906 275.087 C 163.794 277.995, 163.749 278.169, 164.258 285.273 C 164.559 289.472, 165.717 294.699, 167.021 297.750 L 169.267 303 189.740 303 C 212.978 303, 211.637 303.774, 205.092 294.135 C 193.977 277.768, 182.895 270.223, 172.286 271.800 M 826.994 287.250 C 826.991 293.438, 826.551 301.173, 826.016 304.439 C 824.177 315.670, 817.043 320.842, 803.250 320.946 L 796 321 796 336 L 796 351 809.500 351 L 823 351 823.031 384.750 C 823.048 403.313, 823.474 421.669, 823.977 425.542 C 825.191 434.874, 827.922 440.933, 833.698 447.109 C 842.698 456.730, 850.640 458.946, 876.250 458.980 L 891 459 891 444.674 L 891 430.348 880.825 429.317 C 870.937 428.316, 870.557 428.185, 867.325 424.658 C 864.082 421.119, 864 420.811, 864 412.177 C 864 407.308, 863.703 391.776, 863.340 377.662 L 862.679 352 876.840 352 L 891 352 891 337 L 891 322 877 322 L 863 322 863 299 L 863 276 845 276 L 827 276 826.994 287.250 M 385 320.600 L 385 349.283 404.572 348.561 C 426.632 347.746, 429.013 347.139, 434.278 340.988 C 438.635 335.898, 440.458 329.640, 440.392 320 C 440.326 310.491, 438.704 305.481, 434.150 300.720 C 429.543 295.903, 423.921 294.211, 410.154 293.501 C 404.294 293.199, 396.238 292.718, 392.250 292.434 L 385 291.917 385 320.600 M 126.333 316.417 C 121.789 318.450, 116.925 323.696, 104.898 339.536 C 87.580 362.346, 78.250 375.712, 76.998 379.506 C 76.006 382.513, 76.084 383.479, 77.494 385.632 L 79.169 388.188 88.835 374.912 C 117.410 335.661, 123.221 328.866, 129.762 327.049 C 139.843 324.250, 144.762 326.375, 168.078 343.606 L 176.656 349.945 193.578 349.040 C 207.444 348.299, 211.803 347.685, 217.717 345.639 C 229.948 341.407, 237.487 334.939, 238.667 327.664 C 239.361 323.389, 236.821 318.312, 233.202 316.741 C 231.283 315.908, 215.868 315.485, 180 315.284 C 138.142 315.049, 128.958 315.243, 126.333 316.417 M 563 320.560 C 554.185 322.460, 543.670 327.836, 536.855 333.927 L 531.210 338.973 530.499 329.986 L 529.788 321 511.394 321 L 493 321 493 389.500 L 493 458 512.377 458 L 531.754 458 532.166 418.151 L 532.577 378.301 535.795 371.764 C 541.011 361.170, 548.427 356.945, 565.488 354.848 L 575 353.679 575 336.340 L 575 319 572.250 319.079 C 570.737 319.123, 566.575 319.789, 563 320.560 M 718 320.882 C 710.811 323.202, 706.652 325.374, 700.250 330.149 L 695 334.065 695 327.532 L 695 321 675.500 321 L 656 321 656 389.500 L 656 458 675.403 458 L 694.806 458 695.153 414.750 L 695.500 371.500 698.301 365.796 C 703.470 355.269, 711.625 350.610, 725 350.543 C 735.708 350.489, 740.857 352.975, 745.459 360.420 L 748.500 365.341 748.779 411.670 L 749.058 458 768.880 458 L 788.703 458 788.339 414.250 C 787.803 349.688, 787.910 351.542, 784.257 343.735 C 782.560 340.108, 779.269 335.077, 776.944 332.555 C 771.690 326.855, 760.843 321.408, 752 320.029 C 741.542 318.398, 724.362 318.829, 718 320.882 M 592 389.500 L 592 458 611.500 458 L 631 458 631 389.500 L 631 321 611.500 321 L 592 321 592 389.500 M 912 389.500 L 912 458 931.953 458 L 951.906 458 951.973 389.500 L 952.040 321 932.020 321 L 912 321 912 389.500 M 130.126 339.407 C 125.896 342.528, 119.377 350.764, 100.767 376.500 C 80.325 404.769, 76.364 411.293, 77.571 414.709 C 78.082 416.154, 79.049 417.519, 79.719 417.741 C 80.389 417.964, 85.672 411.701, 91.457 403.823 C 113.712 373.522, 115.652 371.210, 121.181 368.408 C 125.420 366.260, 127.376 365.859, 131.989 366.193 C 139.125 366.709, 143.262 368.871, 159.827 380.739 C 176.529 392.706, 183.253 398.826, 186.051 404.606 C 188.472 409.607, 189.898 410.418, 198 411.397 C 204.733 412.211, 212.613 410.105, 215.891 406.616 C 217.168 405.257, 218.410 402.362, 218.725 400.011 C 219.271 395.941, 219.123 395.671, 213.304 390.163 C 210.014 387.048, 199.262 378.688, 189.411 371.585 C 179.560 364.482, 166.775 355.194, 161 350.946 C 140.533 335.889, 136.790 334.490, 130.126 339.407 M 219.571 355.665 C 213.243 357.848, 206.792 359.310, 201.786 359.696 C 197.466 360.029, 193.733 360.623, 193.490 361.016 C 193.247 361.409, 198.775 365.914, 205.774 371.026 C 227.286 386.740, 230.725 391.247, 229.791 402.509 C 229.190 409.758, 225.275 415.467, 218.521 418.945 C 214.558 420.987, 211.783 421.571, 204.714 421.852 C 199.848 422.046, 193.831 421.691, 191.342 421.065 L 186.818 419.925 182.810 424.478 C 174.580 433.828, 166.348 436.294, 150.850 434.051 C 142.355 432.822, 135.009 430.223, 131.787 427.307 C 128.482 424.316, 130.093 419, 134.304 419 C 135.351 419, 139.971 420.173, 144.570 421.607 C 155.488 425.012, 166.860 424.825, 171.525 421.166 C 177.510 416.471, 178.570 411.019, 174.449 406.122 C 171.760 402.927, 155.578 390.689, 143.095 382.411 C 136.723 378.185, 134.997 377.500, 130.730 377.500 C 124.847 377.500, 124.953 377.395, 107.568 400.500 C 90.399 423.318, 80.006 438.127, 79.363 440.689 C 77.339 448.754, 87.376 458.198, 124.080 482.761 C 141.609 494.493, 148.415 498.307, 159.603 502.667 C 166.023 505.169, 167.606 505.360, 182.500 505.427 C 195.375 505.486, 199.672 505.139, 204.500 503.653 C 225.477 497.198, 243.642 481.641, 252.573 462.484 C 257.458 452.006, 259.326 441.202, 258.773 426.622 C 258.266 413.239, 257.044 408.648, 249.926 393.382 C 247.648 388.497, 243.528 379.325, 240.770 373 C 234.394 358.376, 231.160 351.968, 230.233 352.119 C 229.830 352.185, 225.032 353.780, 219.571 355.665"
        stroke="none" fill="#000000" fill-rule="evenodd" />
</svg>