<svg xmlns="http://www.w3.org/2000/svg" width="1280" height="720" viewBox="0 0 1280 720"
    version="1.1">
    <path
        d="M 0 360.001 L 0 720.002 640.250 719.751 L 1280.500 719.500 1280.751 359.750 L 1281.003 0 640.501 0 L 0 0 0 360.001 M 0.495 360.500 C 0.495 558.500, 0.609 639.649, 0.750 540.831 C 0.890 442.013, 0.890 280.013, 0.750 180.831 C 0.609 81.649, 0.495 162.500, 0.495 360.500 M 113.209 347.016 C 92.744 382.214, 76 411.460, 76 412.007 C 76 413.588, 133.483 413.337, 134.765 411.750 C 136.433 409.687, 180 334.838, 180 334.037 C 180 333.299, 152.304 285.170, 151.067 283.759 C 150.710 283.352, 133.674 311.817, 113.209 347.016 M 203.768 308.522 L 189.036 333.940 203.653 359.220 C 211.692 373.124, 218.374 384.628, 218.502 384.784 C 218.844 385.201, 248 334.996, 248 333.990 C 248 333.158, 220.419 285.191, 219.142 283.802 C 218.789 283.418, 211.871 294.542, 203.768 308.522 M 271.840 308.573 L 257.180 334.017 279.998 373.258 L 302.816 412.500 332.408 412.765 C 348.684 412.911, 362 412.799, 362 412.518 C 362 411.860, 288.098 284.726, 287.186 283.815 C 286.809 283.438, 279.903 294.579, 271.840 308.573 M 392 348 L 392 413 406.500 413 L 421 413 421 392.112 L 421 371.223 438.750 370.778 C 454.300 370.388, 457.244 370.044, 462.500 368.004 C 469.407 365.323, 479.335 356.184, 482.872 349.252 C 486.317 342.499, 488.273 332.425, 487.694 324.428 C 486.739 311.249, 477.366 295.588, 466.542 289.085 C 457.164 283.450, 453.816 283, 421.282 283 L 392 283 392 348 M 497 348 L 497 413 512 413 L 527 413 527 392 L 527 371 536.750 371.038 L 546.500 371.075 559.393 392.038 L 572.287 413 588.643 413 C 597.640 413, 605 412.795, 605 412.545 C 605 412.294, 598.499 401.428, 590.553 388.398 L 576.105 364.706 579.803 362.025 C 596.014 350.267, 601.529 328.159, 592.819 309.845 C 588.655 301.090, 581.040 292.428, 574.264 288.740 C 564.719 283.545, 560.257 283, 527.290 283 L 497 283 497 348 M 613 347.500 L 613 412 627.500 412 L 642 412 642 347.500 L 642 283 627.500 283 L 613 283 613 347.500 M 656 347.500 L 656 412 671 412 L 686 412 686 375.401 L 686 338.801 715.250 375.339 L 744.500 411.877 756.757 411.938 L 769.015 412 768.757 347.750 L 768.500 283.500 753.750 283.223 L 739 282.947 739 320.532 C 739 343.906, 738.642 357.897, 738.054 357.533 C 737.534 357.212, 723.994 340.310, 707.966 319.974 L 678.825 283 667.412 283 L 656 283 656 347.500 M 776 296 L 776 309 795.500 309 L 815 309 815 360.500 L 815 412 830 412 L 845 412 845 360.500 L 845 309 864.500 309 L 884 309 884 296 L 884 283 830 283 L 776 283 776 296 M 891 347.489 L 891 412 906 412 L 921 412 921 386.500 L 921 361 945 361 L 969 361 969 349 L 969 337 945 337 L 921 337 921 323 L 921 309 950.030 309 L 979.060 309 978.780 296.250 L 978.500 283.500 934.750 283.239 L 891 282.979 891 347.489 M 984.259 322.750 C 984.647 359.582, 984.838 363.116, 986.859 370.898 C 992.647 393.184, 1007.261 407.491, 1028.338 411.507 C 1049.863 415.608, 1069.025 410.211, 1081.934 396.412 C 1089.226 388.616, 1093.588 379.752, 1096.085 367.651 C 1097.740 359.633, 1097.975 353.827, 1097.987 320.750 L 1098 283 1083 283 L 1068 283 1068 319.816 C 1068 366.105, 1067.313 370.342, 1058.348 379.379 C 1053.237 384.530, 1049.425 386.004, 1041.282 385.978 C 1028.999 385.938, 1021.821 380.551, 1017.203 367.904 L 1014.500 360.500 1014.196 321.750 L 1013.892 283 998.866 283 L 983.840 283 984.259 322.750 M 1114 347.500 L 1114 412 1159.500 412 L 1205 412 1205 399 L 1205 386 1174 386 L 1143 386 1143 334.500 L 1143 283 1128.500 283 L 1114 283 1114 347.500 M 422 327 L 422 345 434.750 344.998 C 450.141 344.997, 453.316 343.848, 456.750 337.038 C 461.078 328.455, 459.051 317.548, 452.150 312.284 L 447.845 309 434.922 309 L 422 309 422 327 M 526 327.500 L 526 345 540.435 345 C 548.374 345, 555.980 344.578, 557.337 344.062 C 558.693 343.546, 561.080 341.451, 562.640 339.405 C 565.027 336.275, 565.528 334.561, 565.797 328.593 C 566.169 320.318, 564.326 315.885, 559.001 312.250 C 555.947 310.166, 554.611 310, 540.852 310 L 526 310 526 327.500 M 164.479 376.135 C 153.491 394.961, 144.355 410.957, 144.177 411.682 C 143.915 412.750, 149.342 413, 172.772 413 C 199.078 413, 201.825 412.842, 203.181 411.250 C 204.841 409.302, 214 393.431, 214 392.503 C 214 391.806, 187.695 346.328, 185.774 343.704 C 184.603 342.104, 182.274 345.651, 164.479 376.135 M 238.059 366.748 C 230.143 380.331, 223.667 391.937, 223.667 392.538 C 223.667 393.140, 226.231 397.990, 229.366 403.316 L 235.065 413 263.974 413 C 279.873 413, 293.066 412.663, 293.292 412.250 C 293.677 411.545, 255.190 344.790, 253.320 342.920 C 252.827 342.427, 246.211 352.758, 238.059 366.748 M 215.231 405.877 C 213.454 409.109, 212 412.034, 212 412.377 C 212 412.720, 214.925 413, 218.500 413 C 222.659 413, 225 412.594, 225 411.872 C 225 410.891, 219.182 400, 218.657 400 C 218.550 400, 217.008 402.645, 215.231 405.877"
        stroke="none" fill="transparent" fill-rule="evenodd" />
    <path
        d="M 113.209 347.016 C 92.744 382.214, 76 411.460, 76 412.007 C 76 413.588, 133.483 413.337, 134.765 411.750 C 136.433 409.687, 180 334.838, 180 334.037 C 180 333.299, 152.304 285.170, 151.067 283.759 C 150.710 283.352, 133.674 311.817, 113.209 347.016 M 203.768 308.522 L 189.036 333.940 203.653 359.220 C 211.692 373.124, 218.374 384.628, 218.502 384.784 C 218.844 385.201, 248 334.996, 248 333.990 C 248 333.158, 220.419 285.191, 219.142 283.802 C 218.789 283.418, 211.871 294.542, 203.768 308.522 M 271.840 308.573 L 257.180 334.017 279.998 373.258 L 302.816 412.500 332.408 412.765 C 348.684 412.911, 362 412.799, 362 412.518 C 362 411.860, 288.098 284.726, 287.186 283.815 C 286.809 283.438, 279.903 294.579, 271.840 308.573 M 392 348 L 392 413 406.500 413 L 421 413 421 392.112 L 421 371.223 438.750 370.778 C 454.300 370.388, 457.244 370.044, 462.500 368.004 C 469.407 365.323, 479.335 356.184, 482.872 349.252 C 486.317 342.499, 488.273 332.425, 487.694 324.428 C 486.739 311.249, 477.366 295.588, 466.542 289.085 C 457.164 283.450, 453.816 283, 421.282 283 L 392 283 392 348 M 497 348 L 497 413 512 413 L 527 413 527 392 L 527 371 536.750 371.038 L 546.500 371.075 559.393 392.038 L 572.287 413 588.643 413 C 597.640 413, 605 412.795, 605 412.545 C 605 412.294, 598.499 401.428, 590.553 388.398 L 576.105 364.706 579.803 362.025 C 596.014 350.267, 601.529 328.159, 592.819 309.845 C 588.655 301.090, 581.040 292.428, 574.264 288.740 C 564.719 283.545, 560.257 283, 527.290 283 L 497 283 497 348 M 613 347.500 L 613 412 627.500 412 L 642 412 642 347.500 L 642 283 627.500 283 L 613 283 613 347.500 M 656 347.500 L 656 412 671 412 L 686 412 686 375.401 L 686 338.801 715.250 375.339 L 744.500 411.877 756.757 411.938 L 769.015 412 768.757 347.750 L 768.500 283.500 753.750 283.223 L 739 282.947 739 320.532 C 739 343.906, 738.642 357.897, 738.054 357.533 C 737.534 357.212, 723.994 340.310, 707.966 319.974 L 678.825 283 667.412 283 L 656 283 656 347.500 M 776 296 L 776 309 795.500 309 L 815 309 815 360.500 L 815 412 830 412 L 845 412 845 360.500 L 845 309 864.500 309 L 884 309 884 296 L 884 283 830 283 L 776 283 776 296 M 891 347.489 L 891 412 906 412 L 921 412 921 386.500 L 921 361 945 361 L 969 361 969 349 L 969 337 945 337 L 921 337 921 323 L 921 309 950.030 309 L 979.060 309 978.780 296.250 L 978.500 283.500 934.750 283.239 L 891 282.979 891 347.489 M 984.259 322.750 C 984.647 359.582, 984.838 363.116, 986.859 370.898 C 992.647 393.184, 1007.261 407.491, 1028.338 411.507 C 1049.863 415.608, 1069.025 410.211, 1081.934 396.412 C 1089.226 388.616, 1093.588 379.752, 1096.085 367.651 C 1097.740 359.633, 1097.975 353.827, 1097.987 320.750 L 1098 283 1083 283 L 1068 283 1068 319.816 C 1068 366.105, 1067.313 370.342, 1058.348 379.379 C 1053.237 384.530, 1049.425 386.004, 1041.282 385.978 C 1028.999 385.938, 1021.821 380.551, 1017.203 367.904 L 1014.500 360.500 1014.196 321.750 L 1013.892 283 998.866 283 L 983.840 283 984.259 322.750 M 1114 347.500 L 1114 412 1159.500 412 L 1205 412 1205 399 L 1205 386 1174 386 L 1143 386 1143 334.500 L 1143 283 1128.500 283 L 1114 283 1114 347.500 M 422 327 L 422 345 434.750 344.998 C 450.141 344.997, 453.316 343.848, 456.750 337.038 C 461.078 328.455, 459.051 317.548, 452.150 312.284 L 447.845 309 434.922 309 L 422 309 422 327 M 526 327.500 L 526 345 540.435 345 C 548.374 345, 555.980 344.578, 557.337 344.062 C 558.693 343.546, 561.080 341.451, 562.640 339.405 C 565.027 336.275, 565.528 334.561, 565.797 328.593 C 566.169 320.318, 564.326 315.885, 559.001 312.250 C 555.947 310.166, 554.611 310, 540.852 310 L 526 310 526 327.500 M 164.479 376.135 C 153.491 394.961, 144.355 410.957, 144.177 411.682 C 143.915 412.750, 149.342 413, 172.772 413 C 199.078 413, 201.825 412.842, 203.181 411.250 C 204.841 409.302, 214 393.431, 214 392.503 C 214 391.806, 187.695 346.328, 185.774 343.704 C 184.603 342.104, 182.274 345.651, 164.479 376.135 M 238.059 366.748 C 230.143 380.331, 223.667 391.937, 223.667 392.538 C 223.667 393.140, 226.231 397.990, 229.366 403.316 L 235.065 413 263.974 413 C 279.873 413, 293.066 412.663, 293.292 412.250 C 293.677 411.545, 255.190 344.790, 253.320 342.920 C 252.827 342.427, 246.211 352.758, 238.059 366.748 M 215.231 405.877 C 213.454 409.109, 212 412.034, 212 412.377 C 212 412.720, 214.925 413, 218.500 413 C 222.659 413, 225 412.594, 225 411.872 C 225 410.891, 219.182 400, 218.657 400 C 218.550 400, 217.008 402.645, 215.231 405.877"
        stroke="none" fill="#000000" fill-rule="evenodd" />
</svg>