<svg xmlns="http://www.w3.org/2000/svg" width="1280" height="720" viewBox="0 0 1280 720"
    version="1.1">
    <path
        d="M 0 360.001 L 0 720.002 640.250 719.751 L 1280.500 719.500 1280.751 359.750 L 1281.003 0 640.501 0 L 0 0 0 360.001 M 0.495 360.500 C 0.495 558.500, 0.609 639.649, 0.750 540.831 C 0.890 442.013, 0.890 280.013, 0.750 180.831 C 0.609 81.649, 0.495 162.500, 0.495 360.500 M 188.500 200.399 C 167.743 206.963, 149.973 229.529, 138.556 263.822 C 136.483 270.050, 134.272 275.279, 133.643 275.444 C 130.168 276.352, 109.662 283.113, 104.746 284.972 C 101.581 286.168, 98.557 287.960, 98.025 288.953 C 96.442 291.911, 91.295 328.462, 83.514 392 C 82.133 403.275, 79.208 426.450, 77.014 443.500 C 74.821 460.550, 73.020 476.170, 73.013 478.211 C 72.997 482.723, 71.173 482.136, 105 488.521 C 156.727 498.286, 192.301 505.025, 213 508.980 C 224.825 511.240, 238.918 513.915, 244.319 514.924 L 254.137 516.759 291.319 508.474 C 311.768 503.917, 333.530 499.021, 339.678 497.594 C 345.826 496.167, 351.085 495, 351.365 495 C 351.645 495, 351.670 493.538, 351.420 491.750 C 346.855 459.066, 337.901 396.655, 329.506 339 C 323.700 299.125, 318.679 264.614, 318.347 262.308 C 318.006 259.935, 317.089 257.864, 316.234 257.536 C 315.403 257.217, 309.048 256.426, 302.112 255.778 L 289.500 254.600 279.791 245.330 C 274.452 240.231, 269 235.787, 267.676 235.455 C 265.599 234.934, 259.902 235.949, 255.564 237.614 C 254.720 237.938, 252.948 235.549, 250.589 230.905 C 243.797 217.536, 237.017 211.275, 226.333 208.506 C 223.125 207.675, 219.375 206.083, 218 204.968 C 212.642 200.626, 207.794 199.042, 200 199.089 C 195.875 199.114, 190.700 199.703, 188.500 200.399 M 190.813 211.926 C 183.489 214.790, 179.523 217.622, 173.282 224.444 C 166.160 232.229, 159.630 243.127, 153.597 257.295 C 148.482 269.307, 148.236 270.369, 150.750 269.597 C 151.713 269.302, 156.721 267.938, 161.879 266.568 C 167.038 265.197, 171.469 263.865, 171.726 263.608 C 171.983 263.350, 173.707 258.629, 175.556 253.116 C 182.228 233.232, 189.353 222.540, 201.300 214.487 C 204.983 212.004, 205.720 211.106, 204.468 210.626 C 201.522 209.496, 195.583 210.061, 190.813 211.926 M 227.008 220.250 C 227.021 222.310, 230.014 244.348, 230.323 244.656 C 231.037 245.370, 241.294 241.397, 241.741 240.233 C 242.706 237.718, 238.781 229.921, 233.810 224.483 C 228.813 219.015, 226.993 217.882, 227.008 220.250 M 207.693 225.080 C 200.003 230.174, 193.193 239.826, 188.008 252.980 C 186.167 257.651, 186.150 258, 187.765 257.997 C 189.936 257.994, 216.834 250.500, 217.668 249.666 C 218.481 248.852, 216.207 228.894, 214.861 225.032 C 214.280 223.365, 213.476 222, 213.074 222 C 212.672 222, 210.250 223.386, 207.693 225.080 M 1065.500 261.043 C 1047.550 263.404, 1031.664 274.937, 1023.585 291.472 C 1020.131 298.542, 1015.645 312.284, 1014.517 319.250 L 1013.909 323 1004.701 323 L 995.492 323 992.784 337.704 C 991.294 345.792, 990.321 352.654, 990.621 352.954 C 990.920 353.255, 994.950 353.659, 999.576 353.852 C 1007.575 354.187, 1007.964 354.310, 1007.526 356.352 C 1005.859 364.124, 989.290 451.959, 988.399 457.750 L 987.744 462 1006.813 462 C 1017.760 462, 1026.132 461.596, 1026.468 461.051 C 1027.218 459.838, 1034.106 425.273, 1041.559 385.326 L 1047.375 354.151 1060.107 353.826 C 1067.110 353.647, 1073.100 353.238, 1073.418 352.918 C 1074.455 351.876, 1079.174 326.896, 1078.611 325.428 C 1078.175 324.292, 1075.397 324, 1065.012 324 L 1051.962 324 1052.581 321.250 C 1056.048 305.857, 1059.576 299.817, 1067.461 295.775 C 1070.823 294.051, 1072.683 293.823, 1079.776 294.266 C 1087.891 294.772, 1088.157 294.718, 1089.043 292.386 C 1090.667 288.116, 1096 267.242, 1096 265.158 C 1096 262.759, 1094.784 262.305, 1084.958 261.030 C 1076.493 259.931, 1073.939 259.933, 1065.500 261.043 M 540.817 264.228 C 538.942 265.696, 536.197 279.494, 510.027 419 C 506.158 439.625, 502.734 457.738, 502.417 459.250 L 501.841 462 521.353 462 C 539.070 462, 540.913 461.839, 541.389 460.250 C 541.677 459.288, 543.530 449.950, 545.508 439.500 C 555.319 387.660, 556.395 383.123, 561.089 373.824 C 564.718 366.634, 571.962 358.570, 577.186 355.905 C 582.565 353.161, 588.150 353.414, 591.904 356.573 C 595.877 359.916, 597.321 365.383, 596.467 373.859 C 595.772 380.763, 590.433 411.264, 584.405 442.772 C 582.482 452.821, 581.181 461.483, 581.513 462.022 C 581.873 462.604, 589.783 463, 601.040 463 C 619.842 463, 619.965 462.986, 620.483 460.750 C 621.057 458.269, 630.576 406.752, 634.110 387 C 637.318 369.070, 637.345 347.815, 634.169 339.826 C 631.337 332.702, 625.428 326.543, 618.290 323.275 C 613.239 320.963, 611.898 320.787, 602.508 321.204 C 593.358 321.611, 591.446 322.041, 584.862 325.168 C 580.800 327.097, 574.856 330.810, 571.653 333.419 C 568.450 336.028, 565.633 337.966, 565.392 337.726 C 565.152 337.486, 567.928 322.037, 571.561 303.395 C 575.194 284.753, 578.241 268.150, 578.333 266.500 L 578.500 263.500 560.471 263.228 C 547.055 263.026, 542.026 263.282, 540.817 264.228 M 962.791 266.936 C 954.929 269.458, 949.136 277.409, 948.280 286.854 C 946.481 306.688, 965.287 315.934, 981.805 303.335 C 986.453 299.790, 988.956 293.896, 988.956 286.500 C 988.956 274.381, 982.336 266.881, 971.160 266.341 C 968.047 266.190, 964.281 266.458, 962.791 266.936 M 178.500 309.453 C 163.834 312.843, 152.934 318.883, 144.196 328.464 C 134.679 338.899, 130.821 349.435, 130.667 365.412 C 130.522 380.480, 132.488 384.183, 149.518 400.907 C 163.921 415.053, 165.618 417.823, 164.726 425.740 C 164.355 429.032, 163.381 431.080, 161.106 433.356 C 158.295 436.166, 157.437 436.454, 152.247 436.325 C 145.259 436.152, 137.383 433.310, 129.447 428.098 C 126.176 425.950, 123.212 424.486, 122.861 424.846 C 122.510 425.206, 120.652 431.024, 118.732 437.776 L 115.243 450.052 119.371 453.603 C 124.905 458.364, 134.024 463.292, 142.244 465.966 C 148.056 467.856, 150.752 468.114, 161.744 467.830 C 173.096 467.536, 175.129 467.205, 180.218 464.820 C 191.013 459.760, 199.869 449.409, 204.018 437 C 205.887 431.410, 206.137 428.820, 205.807 418.500 C 205.468 407.919, 205.112 405.902, 202.791 401.441 C 198.326 392.857, 192.498 386.465, 180.044 376.494 C 165.856 365.135, 164 362.837, 164 356.630 C 164 352.972, 164.604 351.382, 167.050 348.596 C 168.727 346.685, 171.764 344.573, 173.798 343.902 C 179.547 342.004, 193.871 342.598, 201.102 345.034 C 204.502 346.180, 207.628 346.753, 208.050 346.308 C 208.472 345.864, 211.346 338.109, 214.436 329.076 C 220.526 311.275, 220.541 311.936, 214 309.939 C 208.243 308.181, 185.358 307.868, 178.500 309.453 M 704 323.337 C 677.336 331.266, 656.755 353.974, 649.018 384 C 646.270 394.665, 645.280 413.041, 646.940 422.589 C 650.303 441.934, 665.302 458.031, 684.093 462.460 C 696.349 465.349, 714.477 463.807, 726.165 458.880 C 748.232 449.579, 766.337 427.350, 773.077 401.284 C 775.995 389.999, 776.795 368.591, 774.620 360 C 771.004 345.720, 761.528 332.769, 750.257 326.704 C 739.111 320.707, 718.011 319.171, 704 323.337 M 865 321.654 C 858.954 322.872, 847.676 329.372, 841.368 335.273 L 834.750 341.463 835.428 334.982 C 835.800 331.417, 836.342 327.262, 836.632 325.750 L 837.159 323 819.659 323 L 802.159 323 801.613 325.750 C 801.313 327.262, 800.346 333.900, 799.465 340.500 C 797.517 355.078, 793.574 376.301, 778.189 455 L 766.362 515.500 772.931 516.317 C 779.998 517.196, 804.510 516.824, 805.511 515.822 C 805.845 515.488, 808.308 503.185, 810.985 488.482 C 813.661 473.779, 816.232 461.368, 816.697 460.903 C 817.162 460.438, 819.783 460.796, 822.521 461.699 C 826.085 462.873, 831.195 463.346, 840.500 463.364 C 852.074 463.386, 854.239 463.107, 860.242 460.821 C 892.920 448.379, 914.984 412.466, 914.997 371.697 C 915.004 348.942, 906.568 331.339, 892.313 324.365 C 887.721 322.118, 885.289 321.645, 877.171 321.419 C 871.852 321.271, 866.375 321.377, 865 321.654 M 456.490 322.944 C 438.881 326.763, 426.267 335.591, 418.921 349.237 C 415.781 355.071, 415.524 356.259, 415.172 366.581 C 414.822 376.875, 414.976 378.019, 417.344 382.691 C 420.680 389.275, 428.705 397.974, 435.262 402.115 C 454.150 414.043, 458.229 420.191, 452.974 428.810 C 449.901 433.851, 445.328 435.294, 434.025 434.790 C 426.696 434.463, 422.434 433.642, 415.537 431.228 C 410.608 429.503, 406.458 428.209, 406.315 428.352 C 406.172 428.495, 404.027 434.867, 401.550 442.511 C 398.158 452.977, 397.349 456.607, 398.273 457.207 C 398.948 457.646, 403.775 459.395, 409 461.094 C 427.511 467.114, 452.219 465.996, 468.021 458.423 C 486.520 449.557, 496.573 431.613, 493.892 412.242 C 492.092 399.237, 485.569 390.845, 468.338 379.371 C 462.106 375.221, 456.106 370.679, 455.004 369.278 C 450.879 364.034, 453.344 356.280, 459.982 353.624 C 465.676 351.346, 477.268 351.513, 485.161 353.987 C 488.647 355.080, 492.248 355.980, 493.162 355.987 C 495.421 356.005, 504.427 329.596, 502.659 328.138 C 502.022 327.612, 498.604 326.208, 495.065 325.018 C 490.027 323.324, 485.578 322.770, 474.565 322.465 C 466.829 322.250, 458.695 322.466, 456.490 322.944 M 941.675 326.250 C 941.377 327.488, 938.641 341.550, 935.596 357.500 C 932.550 373.450, 926.895 403.055, 923.029 423.290 C 919.163 443.524, 916 460.521, 916 461.061 C 916 461.679, 923.305 461.942, 935.719 461.771 L 955.438 461.500 956.173 457.500 C 957.423 450.695, 971.886 374.766, 976.565 350.446 C 979.004 337.766, 981 326.628, 981 325.696 C 981 324.160, 979.173 324, 961.608 324 C 942.326 324, 942.214 324.013, 941.675 326.250 M 1086.582 324.868 C 1085.983 325.837, 1088.575 341.257, 1098.952 398.458 C 1102.839 419.885, 1106.539 441.320, 1107.174 446.090 C 1108.326 454.742, 1108.322 454.776, 1105.493 459.632 C 1099.505 469.910, 1084.528 482.491, 1071.631 488.076 C 1068.455 489.452, 1066.020 491.149, 1066.002 492 C 1065.984 492.825, 1067.841 499.688, 1070.128 507.250 L 1074.287 521 1081.409 521 C 1087.886 521, 1089.140 520.645, 1095.232 517.085 C 1113.996 506.119, 1128.078 490.912, 1144.546 463.826 C 1151.664 452.119, 1167.516 419.909, 1186.539 378.500 C 1205.635 336.933, 1208 331.374, 1208 328.060 C 1208 325.317, 1207.938 325.292, 1199.750 324.654 C 1195.213 324.301, 1186.927 324.009, 1181.338 324.006 L 1171.175 324 1167.992 332.250 C 1163.031 345.106, 1141.571 401.753, 1138.916 409 L 1136.534 415.500 1135.802 409.500 C 1134.408 398.060, 1127.996 330.484, 1127.998 327.250 L 1128 324 1107.559 324 C 1096.316 324, 1086.877 324.391, 1086.582 324.868 M 709 354.081 C 698.773 360.141, 689.446 379.422, 686.999 399.566 C 684.479 420.303, 690.682 432.986, 703.349 432.996 C 712.588 433.003, 720.415 426.750, 726.449 414.538 C 731.826 403.654, 734.135 393.549, 734.680 378.500 C 735.121 366.349, 735 365.207, 732.826 361.008 C 729.567 354.715, 725.127 351.999, 718.102 352.004 C 714.231 352.006, 711.419 352.648, 709 354.081 M 851.479 355.871 C 846.673 358.054, 838.757 366.573, 835.426 373.146 C 834.106 375.750, 832.133 381.171, 831.041 385.191 C 828.306 395.262, 823 422.619, 823 426.648 C 823 431.217, 826.109 433.011, 835.223 433.700 C 844.354 434.391, 848.429 432.594, 855.655 424.687 C 865.927 413.448, 872.937 395.296, 873.752 377.825 C 874.198 368.272, 874.020 366.672, 872.054 362.612 C 868.141 354.529, 860.177 351.919, 851.479 355.871"
        stroke="none" fill="transparent" fill-rule="evenodd" />
    <path
        d="M 188.500 200.399 C 167.743 206.963, 149.973 229.529, 138.556 263.822 C 136.483 270.050, 134.272 275.279, 133.643 275.444 C 130.168 276.352, 109.662 283.113, 104.746 284.972 C 101.581 286.168, 98.557 287.960, 98.025 288.953 C 96.442 291.911, 91.295 328.462, 83.514 392 C 82.133 403.275, 79.208 426.450, 77.014 443.500 C 74.821 460.550, 73.020 476.170, 73.013 478.211 C 72.997 482.723, 71.173 482.136, 105 488.521 C 156.727 498.286, 192.301 505.025, 213 508.980 C 224.825 511.240, 238.918 513.915, 244.319 514.924 L 254.137 516.759 291.319 508.474 C 311.768 503.917, 333.530 499.021, 339.678 497.594 C 345.826 496.167, 351.085 495, 351.365 495 C 351.645 495, 351.670 493.538, 351.420 491.750 C 346.855 459.066, 337.901 396.655, 329.506 339 C 323.700 299.125, 318.679 264.614, 318.347 262.308 C 318.006 259.935, 317.089 257.864, 316.234 257.536 C 315.403 257.217, 309.048 256.426, 302.112 255.778 L 289.500 254.600 279.791 245.330 C 274.452 240.231, 269 235.787, 267.676 235.455 C 265.599 234.934, 259.902 235.949, 255.564 237.614 C 254.720 237.938, 252.948 235.549, 250.589 230.905 C 243.797 217.536, 237.017 211.275, 226.333 208.506 C 223.125 207.675, 219.375 206.083, 218 204.968 C 212.642 200.626, 207.794 199.042, 200 199.089 C 195.875 199.114, 190.700 199.703, 188.500 200.399 M 190.813 211.926 C 183.489 214.790, 179.523 217.622, 173.282 224.444 C 166.160 232.229, 159.630 243.127, 153.597 257.295 C 148.482 269.307, 148.236 270.369, 150.750 269.597 C 151.713 269.302, 156.721 267.938, 161.879 266.568 C 167.038 265.197, 171.469 263.865, 171.726 263.608 C 171.983 263.350, 173.707 258.629, 175.556 253.116 C 182.228 233.232, 189.353 222.540, 201.300 214.487 C 204.983 212.004, 205.720 211.106, 204.468 210.626 C 201.522 209.496, 195.583 210.061, 190.813 211.926 M 227.008 220.250 C 227.021 222.310, 230.014 244.348, 230.323 244.656 C 231.037 245.370, 241.294 241.397, 241.741 240.233 C 242.706 237.718, 238.781 229.921, 233.810 224.483 C 228.813 219.015, 226.993 217.882, 227.008 220.250 M 207.693 225.080 C 200.003 230.174, 193.193 239.826, 188.008 252.980 C 186.167 257.651, 186.150 258, 187.765 257.997 C 189.936 257.994, 216.834 250.500, 217.668 249.666 C 218.481 248.852, 216.207 228.894, 214.861 225.032 C 214.280 223.365, 213.476 222, 213.074 222 C 212.672 222, 210.250 223.386, 207.693 225.080 M 1065.500 261.043 C 1047.550 263.404, 1031.664 274.937, 1023.585 291.472 C 1020.131 298.542, 1015.645 312.284, 1014.517 319.250 L 1013.909 323 1004.701 323 L 995.492 323 992.784 337.704 C 991.294 345.792, 990.321 352.654, 990.621 352.954 C 990.920 353.255, 994.950 353.659, 999.576 353.852 C 1007.575 354.187, 1007.964 354.310, 1007.526 356.352 C 1005.859 364.124, 989.290 451.959, 988.399 457.750 L 987.744 462 1006.813 462 C 1017.760 462, 1026.132 461.596, 1026.468 461.051 C 1027.218 459.838, 1034.106 425.273, 1041.559 385.326 L 1047.375 354.151 1060.107 353.826 C 1067.110 353.647, 1073.100 353.238, 1073.418 352.918 C 1074.455 351.876, 1079.174 326.896, 1078.611 325.428 C 1078.175 324.292, 1075.397 324, 1065.012 324 L 1051.962 324 1052.581 321.250 C 1056.048 305.857, 1059.576 299.817, 1067.461 295.775 C 1070.823 294.051, 1072.683 293.823, 1079.776 294.266 C 1087.891 294.772, 1088.157 294.718, 1089.043 292.386 C 1090.667 288.116, 1096 267.242, 1096 265.158 C 1096 262.759, 1094.784 262.305, 1084.958 261.030 C 1076.493 259.931, 1073.939 259.933, 1065.500 261.043 M 540.817 264.228 C 538.942 265.696, 536.197 279.494, 510.027 419 C 506.158 439.625, 502.734 457.738, 502.417 459.250 L 501.841 462 521.353 462 C 539.070 462, 540.913 461.839, 541.389 460.250 C 541.677 459.288, 543.530 449.950, 545.508 439.500 C 555.319 387.660, 556.395 383.123, 561.089 373.824 C 564.718 366.634, 571.962 358.570, 577.186 355.905 C 582.565 353.161, 588.150 353.414, 591.904 356.573 C 595.877 359.916, 597.321 365.383, 596.467 373.859 C 595.772 380.763, 590.433 411.264, 584.405 442.772 C 582.482 452.821, 581.181 461.483, 581.513 462.022 C 581.873 462.604, 589.783 463, 601.040 463 C 619.842 463, 619.965 462.986, 620.483 460.750 C 621.057 458.269, 630.576 406.752, 634.110 387 C 637.318 369.070, 637.345 347.815, 634.169 339.826 C 631.337 332.702, 625.428 326.543, 618.290 323.275 C 613.239 320.963, 611.898 320.787, 602.508 321.204 C 593.358 321.611, 591.446 322.041, 584.862 325.168 C 580.800 327.097, 574.856 330.810, 571.653 333.419 C 568.450 336.028, 565.633 337.966, 565.392 337.726 C 565.152 337.486, 567.928 322.037, 571.561 303.395 C 575.194 284.753, 578.241 268.150, 578.333 266.500 L 578.500 263.500 560.471 263.228 C 547.055 263.026, 542.026 263.282, 540.817 264.228 M 962.791 266.936 C 954.929 269.458, 949.136 277.409, 948.280 286.854 C 946.481 306.688, 965.287 315.934, 981.805 303.335 C 986.453 299.790, 988.956 293.896, 988.956 286.500 C 988.956 274.381, 982.336 266.881, 971.160 266.341 C 968.047 266.190, 964.281 266.458, 962.791 266.936 M 178.500 309.453 C 163.834 312.843, 152.934 318.883, 144.196 328.464 C 134.679 338.899, 130.821 349.435, 130.667 365.412 C 130.522 380.480, 132.488 384.183, 149.518 400.907 C 163.921 415.053, 165.618 417.823, 164.726 425.740 C 164.355 429.032, 163.381 431.080, 161.106 433.356 C 158.295 436.166, 157.437 436.454, 152.247 436.325 C 145.259 436.152, 137.383 433.310, 129.447 428.098 C 126.176 425.950, 123.212 424.486, 122.861 424.846 C 122.510 425.206, 120.652 431.024, 118.732 437.776 L 115.243 450.052 119.371 453.603 C 124.905 458.364, 134.024 463.292, 142.244 465.966 C 148.056 467.856, 150.752 468.114, 161.744 467.830 C 173.096 467.536, 175.129 467.205, 180.218 464.820 C 191.013 459.760, 199.869 449.409, 204.018 437 C 205.887 431.410, 206.137 428.820, 205.807 418.500 C 205.468 407.919, 205.112 405.902, 202.791 401.441 C 198.326 392.857, 192.498 386.465, 180.044 376.494 C 165.856 365.135, 164 362.837, 164 356.630 C 164 352.972, 164.604 351.382, 167.050 348.596 C 168.727 346.685, 171.764 344.573, 173.798 343.902 C 179.547 342.004, 193.871 342.598, 201.102 345.034 C 204.502 346.180, 207.628 346.753, 208.050 346.308 C 208.472 345.864, 211.346 338.109, 214.436 329.076 C 220.526 311.275, 220.541 311.936, 214 309.939 C 208.243 308.181, 185.358 307.868, 178.500 309.453 M 704 323.337 C 677.336 331.266, 656.755 353.974, 649.018 384 C 646.270 394.665, 645.280 413.041, 646.940 422.589 C 650.303 441.934, 665.302 458.031, 684.093 462.460 C 696.349 465.349, 714.477 463.807, 726.165 458.880 C 748.232 449.579, 766.337 427.350, 773.077 401.284 C 775.995 389.999, 776.795 368.591, 774.620 360 C 771.004 345.720, 761.528 332.769, 750.257 326.704 C 739.111 320.707, 718.011 319.171, 704 323.337 M 865 321.654 C 858.954 322.872, 847.676 329.372, 841.368 335.273 L 834.750 341.463 835.428 334.982 C 835.800 331.417, 836.342 327.262, 836.632 325.750 L 837.159 323 819.659 323 L 802.159 323 801.613 325.750 C 801.313 327.262, 800.346 333.900, 799.465 340.500 C 797.517 355.078, 793.574 376.301, 778.189 455 L 766.362 515.500 772.931 516.317 C 779.998 517.196, 804.510 516.824, 805.511 515.822 C 805.845 515.488, 808.308 503.185, 810.985 488.482 C 813.661 473.779, 816.232 461.368, 816.697 460.903 C 817.162 460.438, 819.783 460.796, 822.521 461.699 C 826.085 462.873, 831.195 463.346, 840.500 463.364 C 852.074 463.386, 854.239 463.107, 860.242 460.821 C 892.920 448.379, 914.984 412.466, 914.997 371.697 C 915.004 348.942, 906.568 331.339, 892.313 324.365 C 887.721 322.118, 885.289 321.645, 877.171 321.419 C 871.852 321.271, 866.375 321.377, 865 321.654 M 456.490 322.944 C 438.881 326.763, 426.267 335.591, 418.921 349.237 C 415.781 355.071, 415.524 356.259, 415.172 366.581 C 414.822 376.875, 414.976 378.019, 417.344 382.691 C 420.680 389.275, 428.705 397.974, 435.262 402.115 C 454.150 414.043, 458.229 420.191, 452.974 428.810 C 449.901 433.851, 445.328 435.294, 434.025 434.790 C 426.696 434.463, 422.434 433.642, 415.537 431.228 C 410.608 429.503, 406.458 428.209, 406.315 428.352 C 406.172 428.495, 404.027 434.867, 401.550 442.511 C 398.158 452.977, 397.349 456.607, 398.273 457.207 C 398.948 457.646, 403.775 459.395, 409 461.094 C 427.511 467.114, 452.219 465.996, 468.021 458.423 C 486.520 449.557, 496.573 431.613, 493.892 412.242 C 492.092 399.237, 485.569 390.845, 468.338 379.371 C 462.106 375.221, 456.106 370.679, 455.004 369.278 C 450.879 364.034, 453.344 356.280, 459.982 353.624 C 465.676 351.346, 477.268 351.513, 485.161 353.987 C 488.647 355.080, 492.248 355.980, 493.162 355.987 C 495.421 356.005, 504.427 329.596, 502.659 328.138 C 502.022 327.612, 498.604 326.208, 495.065 325.018 C 490.027 323.324, 485.578 322.770, 474.565 322.465 C 466.829 322.250, 458.695 322.466, 456.490 322.944 M 941.675 326.250 C 941.377 327.488, 938.641 341.550, 935.596 357.500 C 932.550 373.450, 926.895 403.055, 923.029 423.290 C 919.163 443.524, 916 460.521, 916 461.061 C 916 461.679, 923.305 461.942, 935.719 461.771 L 955.438 461.500 956.173 457.500 C 957.423 450.695, 971.886 374.766, 976.565 350.446 C 979.004 337.766, 981 326.628, 981 325.696 C 981 324.160, 979.173 324, 961.608 324 C 942.326 324, 942.214 324.013, 941.675 326.250 M 1086.582 324.868 C 1085.983 325.837, 1088.575 341.257, 1098.952 398.458 C 1102.839 419.885, 1106.539 441.320, 1107.174 446.090 C 1108.326 454.742, 1108.322 454.776, 1105.493 459.632 C 1099.505 469.910, 1084.528 482.491, 1071.631 488.076 C 1068.455 489.452, 1066.020 491.149, 1066.002 492 C 1065.984 492.825, 1067.841 499.688, 1070.128 507.250 L 1074.287 521 1081.409 521 C 1087.886 521, 1089.140 520.645, 1095.232 517.085 C 1113.996 506.119, 1128.078 490.912, 1144.546 463.826 C 1151.664 452.119, 1167.516 419.909, 1186.539 378.500 C 1205.635 336.933, 1208 331.374, 1208 328.060 C 1208 325.317, 1207.938 325.292, 1199.750 324.654 C 1195.213 324.301, 1186.927 324.009, 1181.338 324.006 L 1171.175 324 1167.992 332.250 C 1163.031 345.106, 1141.571 401.753, 1138.916 409 L 1136.534 415.500 1135.802 409.500 C 1134.408 398.060, 1127.996 330.484, 1127.998 327.250 L 1128 324 1107.559 324 C 1096.316 324, 1086.877 324.391, 1086.582 324.868 M 709 354.081 C 698.773 360.141, 689.446 379.422, 686.999 399.566 C 684.479 420.303, 690.682 432.986, 703.349 432.996 C 712.588 433.003, 720.415 426.750, 726.449 414.538 C 731.826 403.654, 734.135 393.549, 734.680 378.500 C 735.121 366.349, 735 365.207, 732.826 361.008 C 729.567 354.715, 725.127 351.999, 718.102 352.004 C 714.231 352.006, 711.419 352.648, 709 354.081 M 851.479 355.871 C 846.673 358.054, 838.757 366.573, 835.426 373.146 C 834.106 375.750, 832.133 381.171, 831.041 385.191 C 828.306 395.262, 823 422.619, 823 426.648 C 823 431.217, 826.109 433.011, 835.223 433.700 C 844.354 434.391, 848.429 432.594, 855.655 424.687 C 865.927 413.448, 872.937 395.296, 873.752 377.825 C 874.198 368.272, 874.020 366.672, 872.054 362.612 C 868.141 354.529, 860.177 351.919, 851.479 355.871"
        stroke="none" fill="#000000" fill-rule="evenodd" />
</svg>