<svg xmlns="http://www.w3.org/2000/svg" width="1280" height="720" viewBox="0 0 1280 720"
    version="1.1">
    <path
        d="M 0 360.001 L 0 720.002 640.250 719.751 L 1280.500 719.500 1280.751 359.750 L 1281.003 0 640.501 0 L 0 0 0 360.001 M 0.495 360.500 C 0.495 558.500, 0.609 639.649, 0.750 540.831 C 0.890 442.013, 0.890 280.013, 0.750 180.831 C 0.609 81.649, 0.495 162.500, 0.495 360.500 M 73 308.374 L 73 404.748 92.397 423.747 C 116.584 447.437, 129.222 457.004, 163.147 477.303 L 189.383 493 217.441 492.994 C 248.277 492.988, 253 492.393, 253 488.512 C 253 487.195, 253.367 485.891, 253.815 485.614 C 254.263 485.337, 258.567 486.468, 263.380 488.127 C 275.694 492.371, 285.990 492.948, 349.893 492.976 L 404.285 493 413.071 484.037 C 426.361 470.479, 430 470.727, 430 485.191 L 430 493 465.500 493 L 501 493 501 481.266 L 501 469.531 512.765 481.266 L 524.530 493 559.066 493 L 593.602 493 595.321 482.313 C 596.267 476.436, 597.271 471.395, 597.554 471.113 C 597.836 470.831, 603.122 475.640, 609.299 481.800 L 620.531 493 660.001 493 L 699.470 493 711.235 481.266 L 723 469.531 723 481.266 L 723 493 742.818 493 C 768.304 493, 769.157 492.750, 785.716 480.434 L 798.500 470.925 798.783 481.962 L 799.066 493 824.662 493 L 850.259 493 886.629 468.791 L 923 444.582 923 372.375 L 923 300.168 900.901 278.695 L 878.801 257.221 852.534 256.492 L 826.267 255.762 825.641 249.131 C 825.296 245.484, 825.011 238.404, 825.007 233.397 C 825.003 228.390, 824.711 221.527, 824.358 218.147 L 823.715 212 778.599 212 L 733.483 212 711 234.500 L 688.517 257 664.616 257 L 640.716 257 628.608 268.750 L 616.500 280.500 616.218 268.750 L 615.937 257 594.968 257 L 574 257 574 234.500 L 574 212 491 212 L 408 212 408 234.500 L 408 257 309.683 257 L 211.367 257 189.599 234.500 L 167.832 212 120.416 212 L 73 212 73 308.374 M 101.500 232.655 C 100.400 232.888, 98.487 233.294, 97.250 233.558 L 95 234.038 95 316.436 L 95 398.835 111.750 415.019 L 128.500 431.202 158.911 430.607 C 175.637 430.279, 189.437 429.896, 189.577 429.755 C 189.717 429.615, 190.160 417.913, 190.561 403.750 L 191.290 378 168.603 378 L 145.915 378 146.519 355.750 C 146.851 343.512, 147.313 332.551, 147.545 331.391 C 148.062 328.810, 153.136 328.026, 169.500 328 C 175.550 327.990, 182.863 327.699, 185.750 327.352 L 191 326.721 191 301.861 L 191 277 168.500 277 L 146 277 146 254.500 L 146 232 124.750 232.116 C 113.063 232.180, 102.600 232.422, 101.500 232.655 M 428 244.500 L 428 257 454.500 257 L 481 257 481 244.500 L 481 232 454.500 232 L 428 232 428 244.500 M 501 314.261 L 501 396.521 518.260 413.761 L 535.521 431 565.760 431 L 596 431 596 404.500 L 596 378 574.983 378 L 553.966 378 554.233 352.750 L 554.500 327.500 575.250 327.230 L 596 326.959 596 301.980 L 596 277 575 277 L 554 277 554 254.500 L 554 232 527.500 232 L 501 232 501 314.261 M 757.750 232.728 L 754 233.121 754 331.406 L 754 429.691 766.750 430.342 C 773.763 430.699, 785.237 430.994, 792.250 430.996 L 805 431 805.002 412.250 C 805.003 401.938, 805.300 378.988, 805.663 361.250 L 806.323 329 827.017 329 L 847.711 329 848.348 335.750 C 848.699 339.462, 848.989 353.565, 848.993 367.089 C 848.997 380.613, 849.299 400.596, 849.664 411.495 L 850.327 431.312 875.830 430.656 C 889.857 430.295, 901.447 429.886, 901.586 429.748 C 901.725 429.609, 902.168 403.019, 902.570 370.660 L 903.303 311.824 885.912 294.412 L 868.521 277 836.761 277 L 805 277 805 254.500 L 805 232 783.250 232.168 C 771.288 232.261, 759.813 232.513, 757.750 232.728 M 964.739 235.624 C 962.488 239.314, 950.912 274.028, 949.942 280 C 949.073 285.341, 948.595 313.477, 948.279 377.750 L 947.835 468 978.768 468 L 1009.701 468 1010.350 477.154 C 1010.708 482.188, 1011.007 489.501, 1011.015 493.404 C 1011.024 497.307, 1011.363 501.022, 1011.768 501.659 C 1012.233 502.389, 1018.595 503.187, 1028.957 503.816 L 1045.408 504.813 1063.304 486.406 L 1081.200 468 1108.355 468 L 1135.511 468 1169.920 433.580 L 1204.330 399.159 1203.653 317.901 C 1203.280 273.209, 1202.869 236.547, 1202.738 236.430 C 1201.929 235.709, 965.177 234.907, 964.739 235.624 M 988.382 343.210 C 988.769 388.975, 989.258 426.591, 989.467 426.801 C 989.677 427.010, 1001.245 427.572, 1015.174 428.048 C 1029.103 428.525, 1040.601 428.934, 1040.725 428.957 C 1040.848 428.981, 1041.073 436.075, 1041.225 444.723 L 1041.500 460.445 1058.121 444.223 L 1074.741 428 1106.630 428 L 1138.518 428 1158.759 407.741 L 1179 387.482 1179 323.741 L 1179 260 1083.339 260 L 987.677 260 988.382 343.210 M 211 354 L 211 431 292.261 431 L 373.521 431 390.761 413.740 L 408 396.479 408 336.740 L 408 277 381 277 L 354 277 354 327.500 L 354 378 344.500 378 L 335 378 335 327.500 L 335 277 309.500 277 L 284 277 284 327.608 L 284 378.216 273.750 377.496 C 268.113 377.101, 263.386 376.675, 263.246 376.551 C 263.107 376.427, 262.750 356.340, 262.454 331.913 C 262.158 307.486, 261.677 285.137, 261.386 282.250 L 260.856 277 235.928 277 L 211 277 211 354 M 428 354 L 428 431 454.500 431 L 481 431 481 354 L 481 277 454.500 277 L 428 277 428 354 M 633.250 294.946 L 616 312.727 616 354.624 L 616 396.521 633.260 413.761 L 650.521 431 691.260 431 L 732 431 732 404.500 L 732 378 701 378 L 670 378 670 352.500 L 670 327 701 327 L 732 327 732 302 L 732 277 691.250 277.083 L 650.500 277.165 633.250 294.946 M 1052 340 L 1052 375 1063.500 375 L 1075 375 1075 340 L 1075 305 1063.500 305 L 1052 305 1052 340 M 1117 340 L 1117 375 1128.500 375 L 1140 375 1140 340 L 1140 305 1128.500 305 L 1117 305 1117 340"
        stroke="none" fill="transparent" fill-rule="evenodd" />
    <path
        d="M 73 308.374 L 73 404.748 92.397 423.747 C 116.584 447.437, 129.222 457.004, 163.147 477.303 L 189.383 493 217.441 492.994 C 248.277 492.988, 253 492.393, 253 488.512 C 253 487.195, 253.367 485.891, 253.815 485.614 C 254.263 485.337, 258.567 486.468, 263.380 488.127 C 275.694 492.371, 285.990 492.948, 349.893 492.976 L 404.285 493 413.071 484.037 C 426.361 470.479, 430 470.727, 430 485.191 L 430 493 465.500 493 L 501 493 501 481.266 L 501 469.531 512.765 481.266 L 524.530 493 559.066 493 L 593.602 493 595.321 482.313 C 596.267 476.436, 597.271 471.395, 597.554 471.113 C 597.836 470.831, 603.122 475.640, 609.299 481.800 L 620.531 493 660.001 493 L 699.470 493 711.235 481.266 L 723 469.531 723 481.266 L 723 493 742.818 493 C 768.304 493, 769.157 492.750, 785.716 480.434 L 798.500 470.925 798.783 481.962 L 799.066 493 824.662 493 L 850.259 493 886.629 468.791 L 923 444.582 923 372.375 L 923 300.168 900.901 278.695 L 878.801 257.221 852.534 256.492 L 826.267 255.762 825.641 249.131 C 825.296 245.484, 825.011 238.404, 825.007 233.397 C 825.003 228.390, 824.711 221.527, 824.358 218.147 L 823.715 212 778.599 212 L 733.483 212 711 234.500 L 688.517 257 664.616 257 L 640.716 257 628.608 268.750 L 616.500 280.500 616.218 268.750 L 615.937 257 594.968 257 L 574 257 574 234.500 L 574 212 491 212 L 408 212 408 234.500 L 408 257 309.683 257 L 211.367 257 189.599 234.500 L 167.832 212 120.416 212 L 73 212 73 308.374 M 101.500 232.655 C 100.400 232.888, 98.487 233.294, 97.250 233.558 L 95 234.038 95 316.436 L 95 398.835 111.750 415.019 L 128.500 431.202 158.911 430.607 C 175.637 430.279, 189.437 429.896, 189.577 429.755 C 189.717 429.615, 190.160 417.913, 190.561 403.750 L 191.290 378 168.603 378 L 145.915 378 146.519 355.750 C 146.851 343.512, 147.313 332.551, 147.545 331.391 C 148.062 328.810, 153.136 328.026, 169.500 328 C 175.550 327.990, 182.863 327.699, 185.750 327.352 L 191 326.721 191 301.861 L 191 277 168.500 277 L 146 277 146 254.500 L 146 232 124.750 232.116 C 113.063 232.180, 102.600 232.422, 101.500 232.655 M 428 244.500 L 428 257 454.500 257 L 481 257 481 244.500 L 481 232 454.500 232 L 428 232 428 244.500 M 501 314.261 L 501 396.521 518.260 413.761 L 535.521 431 565.760 431 L 596 431 596 404.500 L 596 378 574.983 378 L 553.966 378 554.233 352.750 L 554.500 327.500 575.250 327.230 L 596 326.959 596 301.980 L 596 277 575 277 L 554 277 554 254.500 L 554 232 527.500 232 L 501 232 501 314.261 M 757.750 232.728 L 754 233.121 754 331.406 L 754 429.691 766.750 430.342 C 773.763 430.699, 785.237 430.994, 792.250 430.996 L 805 431 805.002 412.250 C 805.003 401.938, 805.300 378.988, 805.663 361.250 L 806.323 329 827.017 329 L 847.711 329 848.348 335.750 C 848.699 339.462, 848.989 353.565, 848.993 367.089 C 848.997 380.613, 849.299 400.596, 849.664 411.495 L 850.327 431.312 875.830 430.656 C 889.857 430.295, 901.447 429.886, 901.586 429.748 C 901.725 429.609, 902.168 403.019, 902.570 370.660 L 903.303 311.824 885.912 294.412 L 868.521 277 836.761 277 L 805 277 805 254.500 L 805 232 783.250 232.168 C 771.288 232.261, 759.813 232.513, 757.750 232.728 M 964.739 235.624 C 962.488 239.314, 950.912 274.028, 949.942 280 C 949.073 285.341, 948.595 313.477, 948.279 377.750 L 947.835 468 978.768 468 L 1009.701 468 1010.350 477.154 C 1010.708 482.188, 1011.007 489.501, 1011.015 493.404 C 1011.024 497.307, 1011.363 501.022, 1011.768 501.659 C 1012.233 502.389, 1018.595 503.187, 1028.957 503.816 L 1045.408 504.813 1063.304 486.406 L 1081.200 468 1108.355 468 L 1135.511 468 1169.920 433.580 L 1204.330 399.159 1203.653 317.901 C 1203.280 273.209, 1202.869 236.547, 1202.738 236.430 C 1201.929 235.709, 965.177 234.907, 964.739 235.624 M 988.382 343.210 C 988.769 388.975, 989.258 426.591, 989.467 426.801 C 989.677 427.010, 1001.245 427.572, 1015.174 428.048 C 1029.103 428.525, 1040.601 428.934, 1040.725 428.957 C 1040.848 428.981, 1041.073 436.075, 1041.225 444.723 L 1041.500 460.445 1058.121 444.223 L 1074.741 428 1106.630 428 L 1138.518 428 1158.759 407.741 L 1179 387.482 1179 323.741 L 1179 260 1083.339 260 L 987.677 260 988.382 343.210 M 211 354 L 211 431 292.261 431 L 373.521 431 390.761 413.740 L 408 396.479 408 336.740 L 408 277 381 277 L 354 277 354 327.500 L 354 378 344.500 378 L 335 378 335 327.500 L 335 277 309.500 277 L 284 277 284 327.608 L 284 378.216 273.750 377.496 C 268.113 377.101, 263.386 376.675, 263.246 376.551 C 263.107 376.427, 262.750 356.340, 262.454 331.913 C 262.158 307.486, 261.677 285.137, 261.386 282.250 L 260.856 277 235.928 277 L 211 277 211 354 M 428 354 L 428 431 454.500 431 L 481 431 481 354 L 481 277 454.500 277 L 428 277 428 354 M 633.250 294.946 L 616 312.727 616 354.624 L 616 396.521 633.260 413.761 L 650.521 431 691.260 431 L 732 431 732 404.500 L 732 378 701 378 L 670 378 670 352.500 L 670 327 701 327 L 732 327 732 302 L 732 277 691.250 277.083 L 650.500 277.165 633.250 294.946 M 1052 340 L 1052 375 1063.500 375 L 1075 375 1075 340 L 1075 305 1063.500 305 L 1052 305 1052 340 M 1117 340 L 1117 375 1128.500 375 L 1140 375 1140 340 L 1140 305 1128.500 305 L 1117 305 1117 340"
        stroke="none" fill="#000000" fill-rule="evenodd" />
</svg>