<svg xmlns="http://www.w3.org/2000/svg" width="1280" height="720" viewBox="0 0 1280 720"
    version="1.1">
    <path
        d="M 0 360.001 L 0 720.002 640.250 719.751 L 1280.500 719.500 1280.751 359.750 L 1281.003 0 640.501 0 L 0 0 0 360.001 M 0.495 360.500 C 0.495 558.500, 0.609 639.649, 0.750 540.831 C 0.890 442.013, 0.890 280.013, 0.750 180.831 C 0.609 81.649, 0.495 162.500, 0.495 360.500 M 195 234.113 C 165.203 234.982, 132.654 237.359, 121.500 239.481 C 96.572 244.223, 84.568 257.263, 80.053 284.505 C 76.931 303.343, 75.892 317.297, 75.290 348.500 C 74.263 401.745, 78.513 442.147, 86.728 457.242 C 92.866 468.520, 105.846 477.491, 119.566 479.939 C 145.698 484.601, 194.468 486.412, 274.500 485.692 C 363.587 484.890, 391.129 482.497, 406.299 474.241 C 412.541 470.843, 421.106 461.583, 424.351 454.723 C 437.360 427.225, 438.444 301.989, 425.962 268.628 C 421.878 257.712, 411.619 247.200, 400.542 242.579 C 389.669 238.044, 356.324 235.288, 296.702 233.997 C 247.584 232.933, 234.967 232.947, 195 234.113 M 994.667 243.667 C 994.300 244.033, 994 294.658, 994 356.167 L 994 468 1008.933 468 C 1022.305 468, 1023.915 467.817, 1024.345 466.250 C 1024.609 465.288, 1025.360 462.137, 1026.012 459.250 C 1026.665 456.363, 1027.529 454, 1027.931 454 C 1028.333 454, 1029.285 455.164, 1030.046 456.586 C 1031.690 459.659, 1036.952 463.953, 1042.500 466.751 C 1055.345 473.229, 1071.561 470.959, 1079.847 461.522 C 1090.530 449.354, 1093.911 430.558, 1093.973 383 C 1094.026 341.956, 1089.921 322.382, 1079.298 313.031 C 1073.932 308.308, 1068.187 306.664, 1058.813 307.169 C 1047.600 307.774, 1038.340 312.930, 1031.277 322.500 L 1029.063 325.500 1029.032 284.250 L 1029 243 1012.167 243 C 1002.908 243, 995.033 243.300, 994.667 243.667 M 471 252.436 C 471 253.225, 476.204 272.688, 482.564 295.686 C 488.925 318.684, 497.925 351.264, 502.564 368.086 L 511 398.673 511 433.336 L 511 468 528.500 468 L 546 468 546 433.119 L 546 398.239 563.110 336.869 C 572.521 303.116, 581.687 270.325, 583.480 264 C 585.273 257.675, 586.427 252.151, 586.045 251.725 C 585.663 251.299, 577.734 251.074, 568.425 251.225 L 551.500 251.500 543.836 286 C 539.621 304.975, 534.492 329.171, 532.439 339.769 C 530.385 350.368, 528.547 358.880, 528.354 358.687 C 528.160 358.493, 526.885 352.297, 525.521 344.918 C 524.156 337.538, 520.313 318.900, 516.981 303.500 C 511.115 276.394, 506 252.106, 506 251.362 C 506 251.163, 498.125 251, 488.500 251 C 473.959 251, 471 251.243, 471 252.436 M 782 265.500 L 782 280 799.500 280 L 817 280 817 374 L 817 468 834.500 468 L 852 468 852 374 L 852 280 869.500 280 L 887 280 887 265.500 L 887 251 834.500 251 L 782 251 782 265.500 M 219 359.844 L 219 413.806 239.750 401.832 C 251.162 395.246, 265.225 387.047, 271 383.611 C 276.775 380.175, 288.134 373.570, 296.243 368.932 C 304.352 364.294, 310.989 360.211, 310.993 359.859 C 310.999 359.283, 279.063 340.363, 266.500 333.499 C 263.750 331.997, 259.475 329.520, 257 327.996 C 253.645 325.929, 230.331 312.356, 219.750 306.311 C 219.338 306.075, 219 330.165, 219 359.844 M 622 306.638 C 606.681 308.999, 598.542 312.444, 592.511 319.120 C 587.667 324.481, 583.335 333.542, 580.727 343.766 C 578.624 352.012, 578.500 354.539, 578.500 389 C 578.500 427.980, 578.965 432.814, 584.018 446.319 C 586.958 454.177, 595.108 462.878, 602.733 466.300 C 614.965 471.789, 635.575 472.124, 649.125 467.054 C 663.439 461.699, 671.435 448.495, 674.555 425.061 C 676.223 412.534, 676.505 367.472, 674.991 355.398 C 671.441 327.092, 660.578 311.821, 641.322 308.071 C 635.188 306.876, 625.242 306.138, 622 306.638 M 1142 308.319 C 1115.712 315.877, 1107.827 337.628, 1109.310 398.500 C 1110.106 431.140, 1113.341 446.067, 1121.985 456.981 C 1130.247 467.412, 1147.608 472.518, 1166.174 469.976 C 1184.343 467.488, 1195.878 458.562, 1200.494 443.416 C 1202.372 437.255, 1203.617 422.499, 1202.326 421.702 C 1201.115 420.953, 1172.860 418.807, 1172.250 419.417 C 1171.998 419.669, 1171.379 423.569, 1170.874 428.083 C 1169.370 441.525, 1165.936 446, 1157.126 446 C 1151.399 446, 1147.466 442.400, 1146.067 435.875 C 1145.468 433.082, 1144.687 424.092, 1144.333 415.898 L 1143.688 401 1173.844 401 L 1204 401 1203.953 391.750 C 1203.830 367.569, 1202.118 343.478, 1199.990 336.003 C 1195.885 321.581, 1189.862 314.119, 1178.805 309.757 C 1172.142 307.128, 1149.254 306.233, 1142 308.319 M 694.020 371.250 C 694.044 446.018, 694.681 451.980, 703.721 462.035 C 711.182 470.333, 723.099 472.987, 735.705 469.158 C 744.205 466.576, 750.369 462.016, 755.560 454.470 L 759.500 448.742 760.771 456.121 C 763.075 469.500, 761.024 468, 777.019 468 L 791 468 791 389 L 791 310 773 310 L 755 310 755 372.923 L 755 435.847 752.381 438.959 C 747.150 445.176, 738.054 447.121, 734.094 442.871 C 730.331 438.831, 730 432.977, 730 370.451 L 730 310 712 310 L 694 310 694.020 371.250 M 876.341 375.250 C 877.014 444.237, 877.250 447.689, 881.923 456.850 C 884.452 461.807, 890.755 467.428, 895.619 469.064 C 900.627 470.749, 913.324 470.840, 918.657 469.229 C 925.161 467.264, 932.058 462.065, 937.197 455.252 L 941.910 449.004 942.439 452.252 C 942.730 454.038, 943.425 458.170, 943.984 461.434 C 944.543 464.697, 945 467.510, 945 467.684 C 945 467.858, 951.300 468, 959 468 L 973 468 973 389 L 973 310 955 310 L 937 310 936.978 373.250 C 936.957 431.659, 936.823 436.665, 935.228 438.656 C 930.132 445.016, 920.239 447.013, 916.029 442.531 C 912.555 438.833, 912.134 430.792, 912.063 366.750 L 912 310 893.852 310 L 875.705 310 876.341 375.250 M 1150.155 333.523 C 1146.180 336.868, 1145.143 342.044, 1144.333 362.596 L 1143.686 379 1156.843 379 L 1170 379 1169.969 366.250 C 1169.932 350.751, 1168.619 339.857, 1166.321 335.966 C 1163.188 330.662, 1155.022 329.428, 1150.155 333.523 M 619.615 335.045 C 614.739 340.840, 614.500 343.365, 614.500 389 C 614.500 435.304, 614.766 437.920, 620.004 443.158 C 626.149 449.303, 635.217 445.683, 638.169 435.908 C 640.089 429.549, 640.089 348.451, 638.169 342.092 C 636.174 335.484, 632.202 332, 626.666 332 C 622.892 332, 621.770 332.485, 619.615 335.045 M 1038.366 333.919 C 1036.642 334.970, 1033.942 337.520, 1032.366 339.586 L 1029.500 343.342 1029.221 390.311 C 1028.961 434.133, 1029.061 437.410, 1030.719 439.242 C 1033.640 442.469, 1037.600 444, 1043.027 444 C 1050.336 444, 1053.178 440.944, 1055.640 430.437 C 1057.261 423.519, 1057.500 418.133, 1057.500 388.500 C 1057.500 345.658, 1056.201 337.224, 1049.033 333.517 C 1045.128 331.498, 1042.152 331.610, 1038.366 333.919"
        stroke="none" fill="transparent" fill-rule="evenodd" />
    <path
        d="M 195 234.113 C 165.203 234.982, 132.654 237.359, 121.500 239.481 C 96.572 244.223, 84.568 257.263, 80.053 284.505 C 76.931 303.343, 75.892 317.297, 75.290 348.500 C 74.263 401.745, 78.513 442.147, 86.728 457.242 C 92.866 468.520, 105.846 477.491, 119.566 479.939 C 145.698 484.601, 194.468 486.412, 274.500 485.692 C 363.587 484.890, 391.129 482.497, 406.299 474.241 C 412.541 470.843, 421.106 461.583, 424.351 454.723 C 437.360 427.225, 438.444 301.989, 425.962 268.628 C 421.878 257.712, 411.619 247.200, 400.542 242.579 C 389.669 238.044, 356.324 235.288, 296.702 233.997 C 247.584 232.933, 234.967 232.947, 195 234.113 M 994.667 243.667 C 994.300 244.033, 994 294.658, 994 356.167 L 994 468 1008.933 468 C 1022.305 468, 1023.915 467.817, 1024.345 466.250 C 1024.609 465.288, 1025.360 462.137, 1026.012 459.250 C 1026.665 456.363, 1027.529 454, 1027.931 454 C 1028.333 454, 1029.285 455.164, 1030.046 456.586 C 1031.690 459.659, 1036.952 463.953, 1042.500 466.751 C 1055.345 473.229, 1071.561 470.959, 1079.847 461.522 C 1090.530 449.354, 1093.911 430.558, 1093.973 383 C 1094.026 341.956, 1089.921 322.382, 1079.298 313.031 C 1073.932 308.308, 1068.187 306.664, 1058.813 307.169 C 1047.600 307.774, 1038.340 312.930, 1031.277 322.500 L 1029.063 325.500 1029.032 284.250 L 1029 243 1012.167 243 C 1002.908 243, 995.033 243.300, 994.667 243.667 M 471 252.436 C 471 253.225, 476.204 272.688, 482.564 295.686 C 488.925 318.684, 497.925 351.264, 502.564 368.086 L 511 398.673 511 433.336 L 511 468 528.500 468 L 546 468 546 433.119 L 546 398.239 563.110 336.869 C 572.521 303.116, 581.687 270.325, 583.480 264 C 585.273 257.675, 586.427 252.151, 586.045 251.725 C 585.663 251.299, 577.734 251.074, 568.425 251.225 L 551.500 251.500 543.836 286 C 539.621 304.975, 534.492 329.171, 532.439 339.769 C 530.385 350.368, 528.547 358.880, 528.354 358.687 C 528.160 358.493, 526.885 352.297, 525.521 344.918 C 524.156 337.538, 520.313 318.900, 516.981 303.500 C 511.115 276.394, 506 252.106, 506 251.362 C 506 251.163, 498.125 251, 488.500 251 C 473.959 251, 471 251.243, 471 252.436 M 782 265.500 L 782 280 799.500 280 L 817 280 817 374 L 817 468 834.500 468 L 852 468 852 374 L 852 280 869.500 280 L 887 280 887 265.500 L 887 251 834.500 251 L 782 251 782 265.500 M 219 359.844 L 219 413.806 239.750 401.832 C 251.162 395.246, 265.225 387.047, 271 383.611 C 276.775 380.175, 288.134 373.570, 296.243 368.932 C 304.352 364.294, 310.989 360.211, 310.993 359.859 C 310.999 359.283, 279.063 340.363, 266.500 333.499 C 263.750 331.997, 259.475 329.520, 257 327.996 C 253.645 325.929, 230.331 312.356, 219.750 306.311 C 219.338 306.075, 219 330.165, 219 359.844 M 622 306.638 C 606.681 308.999, 598.542 312.444, 592.511 319.120 C 587.667 324.481, 583.335 333.542, 580.727 343.766 C 578.624 352.012, 578.500 354.539, 578.500 389 C 578.500 427.980, 578.965 432.814, 584.018 446.319 C 586.958 454.177, 595.108 462.878, 602.733 466.300 C 614.965 471.789, 635.575 472.124, 649.125 467.054 C 663.439 461.699, 671.435 448.495, 674.555 425.061 C 676.223 412.534, 676.505 367.472, 674.991 355.398 C 671.441 327.092, 660.578 311.821, 641.322 308.071 C 635.188 306.876, 625.242 306.138, 622 306.638 M 1142 308.319 C 1115.712 315.877, 1107.827 337.628, 1109.310 398.500 C 1110.106 431.140, 1113.341 446.067, 1121.985 456.981 C 1130.247 467.412, 1147.608 472.518, 1166.174 469.976 C 1184.343 467.488, 1195.878 458.562, 1200.494 443.416 C 1202.372 437.255, 1203.617 422.499, 1202.326 421.702 C 1201.115 420.953, 1172.860 418.807, 1172.250 419.417 C 1171.998 419.669, 1171.379 423.569, 1170.874 428.083 C 1169.370 441.525, 1165.936 446, 1157.126 446 C 1151.399 446, 1147.466 442.400, 1146.067 435.875 C 1145.468 433.082, 1144.687 424.092, 1144.333 415.898 L 1143.688 401 1173.844 401 L 1204 401 1203.953 391.750 C 1203.830 367.569, 1202.118 343.478, 1199.990 336.003 C 1195.885 321.581, 1189.862 314.119, 1178.805 309.757 C 1172.142 307.128, 1149.254 306.233, 1142 308.319 M 694.020 371.250 C 694.044 446.018, 694.681 451.980, 703.721 462.035 C 711.182 470.333, 723.099 472.987, 735.705 469.158 C 744.205 466.576, 750.369 462.016, 755.560 454.470 L 759.500 448.742 760.771 456.121 C 763.075 469.500, 761.024 468, 777.019 468 L 791 468 791 389 L 791 310 773 310 L 755 310 755 372.923 L 755 435.847 752.381 438.959 C 747.150 445.176, 738.054 447.121, 734.094 442.871 C 730.331 438.831, 730 432.977, 730 370.451 L 730 310 712 310 L 694 310 694.020 371.250 M 876.341 375.250 C 877.014 444.237, 877.250 447.689, 881.923 456.850 C 884.452 461.807, 890.755 467.428, 895.619 469.064 C 900.627 470.749, 913.324 470.840, 918.657 469.229 C 925.161 467.264, 932.058 462.065, 937.197 455.252 L 941.910 449.004 942.439 452.252 C 942.730 454.038, 943.425 458.170, 943.984 461.434 C 944.543 464.697, 945 467.510, 945 467.684 C 945 467.858, 951.300 468, 959 468 L 973 468 973 389 L 973 310 955 310 L 937 310 936.978 373.250 C 936.957 431.659, 936.823 436.665, 935.228 438.656 C 930.132 445.016, 920.239 447.013, 916.029 442.531 C 912.555 438.833, 912.134 430.792, 912.063 366.750 L 912 310 893.852 310 L 875.705 310 876.341 375.250 M 1150.155 333.523 C 1146.180 336.868, 1145.143 342.044, 1144.333 362.596 L 1143.686 379 1156.843 379 L 1170 379 1169.969 366.250 C 1169.932 350.751, 1168.619 339.857, 1166.321 335.966 C 1163.188 330.662, 1155.022 329.428, 1150.155 333.523 M 619.615 335.045 C 614.739 340.840, 614.500 343.365, 614.500 389 C 614.500 435.304, 614.766 437.920, 620.004 443.158 C 626.149 449.303, 635.217 445.683, 638.169 435.908 C 640.089 429.549, 640.089 348.451, 638.169 342.092 C 636.174 335.484, 632.202 332, 626.666 332 C 622.892 332, 621.770 332.485, 619.615 335.045 M 1038.366 333.919 C 1036.642 334.970, 1033.942 337.520, 1032.366 339.586 L 1029.500 343.342 1029.221 390.311 C 1028.961 434.133, 1029.061 437.410, 1030.719 439.242 C 1033.640 442.469, 1037.600 444, 1043.027 444 C 1050.336 444, 1053.178 440.944, 1055.640 430.437 C 1057.261 423.519, 1057.500 418.133, 1057.500 388.500 C 1057.500 345.658, 1056.201 337.224, 1049.033 333.517 C 1045.128 331.498, 1042.152 331.610, 1038.366 333.919"
        stroke="none" fill="#000000" fill-rule="evenodd" />
</svg>